<svg xmlns="http://www.w3.org/2000/svg" viewBox="0 19.450000762939453 1286.800048828125 439.89996337890625" data-asc="1.16" width="1286.800048828125" height="439.89996337890625"><defs/><g fill="#000000"><g transform="translate(0, 0)"><path d="M19.55 58.50Q14.20 58.50 9.70 55.97Q5.20 53.45 2.60 48.97Q0 44.50 0 39.00Q0 33.20 2.60 28.75Q5.20 24.30 9.60 21.87Q14 19.45 19.25 19.45Q24.30 19.45 27.78 21.22Q31.25 23.00 34.35 26.20Q34.45 26.30 34.65 26.30Q34.95 26.30 35.70 25.85L36.30 26.60L29.40 32.05L28.80 31.30Q29.10 31.10 29.28 30.77Q29.45 30.45 29.25 30.30Q27.15 28.25 24.88 27.17Q22.60 26.10 19.35 26.10Q15.95 26.10 13.10 27.77Q10.25 29.45 8.60 32.40Q6.95 35.35 6.95 39.00Q6.95 42.50 8.70 45.37Q10.45 48.25 13.35 49.90Q16.25 51.55 19.55 51.55Q22.65 51.55 24.85 50.47Q27.05 49.40 29 47.25L29.10 47.05Q29.10 46.80 28.88 46.47Q28.65 46.15 28.40 46.00L29.05 45.30L36.50 51.55L35.90 52.30Q35.60 52.05 35.15 51.85Q34.70 51.65 34.55 51.85Q31.40 55.25 27.95 56.87Q24.50 58.50 19.55 58.50ZM54.45 33.50L54.45 41.55L53.50 41.55Q53.50 41.20 53.35 40.75Q53.20 40.30 52.95 40.25L52.60 40.25Q51.05 40.25 49.48 41.12Q47.90 42.00 46.88 43.42Q45.85 44.85 45.85 46.45L45.85 56.50Q45.85 56.75 46.23 56.90Q46.60 57.05 46.95 57.05L46.95 58.00L38.55 58.00L38.55 57.05Q38.90 57.05 39.27 56.90Q39.65 56.75 39.65 56.50L39.65 36.50Q39.65 36.25 39.27 36.10Q38.90 35.95 38.55 35.95L38.55 35.00L45.85 35.00L45.85 37.15Q47.20 35.90 49.10 35.15Q51 34.40 52.90 34.40L52.95 34.40L53 34.40Q53.25 34.40 53.38 34.10Q53.50 33.80 53.50 33.50L54.45 33.50ZM69.15 33.95Q73 33.95 75.80 35.62Q78.60 37.30 80.05 40.15Q81.50 43.00 81.50 46.45Q81.50 47.50 81.35 48.55L63.05 48.55Q63.25 50.95 65.15 52.30Q67.05 53.65 69.70 53.65Q71.50 53.65 72.73 53.15Q73.95 52.65 74.90 51.65Q75 51.45 75 51.40Q75 51.20 74.85 50.97Q74.70 50.75 74.55 50.65L75.15 49.90L80.70 54.25L80.15 55.00Q79.40 54.55 79.10 54.90Q75.60 59.10 69.70 59.10Q65.90 59.10 63 57.42Q60.10 55.75 58.53 52.92Q56.95 50.10 56.95 46.65Q56.95 43.00 58.50 40.10Q60.05 37.20 62.83 35.57Q65.60 33.95 69.15 33.95M75.50 43.90Q75.30 41.85 73.43 40.42Q71.55 39.00 69.20 39.00Q66.85 39.00 65.15 40.42Q63.45 41.85 63.10 43.90L75.50 43.90ZM110.75 56.50Q110.75 56.75 111.13 56.90Q111.50 57.05 111.85 57.05L111.85 58.00L104.70 58.00L104.70 56.25Q101.70 58.70 97.55 58.70Q93.85 58.70 90.95 57.20Q88.05 55.70 86.40 52.95Q84.75 50.20 84.75 46.60Q84.75 42.95 86.42 40.12Q88.10 37.30 91.03 35.72Q93.95 34.15 97.55 34.15Q101.70 34.15 104.70 36.50L104.70 22.00Q104.70 21.75 104.35 21.60Q104 21.45 103.65 21.45L103.65 20.50L111.80 20.50L111.80 21.45Q111.45 21.45 111.10 21.60Q110.75 21.75 110.75 22.00L110.75 56.50M97.85 53.35Q99.80 53.35 101.42 52.45Q103.05 51.55 103.97 50.02Q104.90 48.50 104.90 46.80Q104.90 43.75 102.92 41.77Q100.95 39.80 97.85 39.80Q94.75 39.80 92.78 41.72Q90.80 43.65 90.80 46.70Q90.80 49.75 92.83 51.55Q94.85 53.35 97.85 53.35ZM121.70 30.80Q120.10 30.80 118.97 29.70Q117.85 28.60 117.85 26.95Q117.85 25.40 118.97 24.27Q120.10 23.15 121.70 23.15Q123.30 23.15 124.40 24.27Q125.50 25.40 125.50 26.95Q125.50 28.60 124.40 29.70Q123.30 30.80 121.70 30.80M118.45 36.50Q118.45 36.25 118.07 36.10Q117.70 35.95 117.35 35.95L117.35 35.00L125.95 35.00L125.95 35.95Q125.60 35.95 125.22 36.10Q124.85 36.25 124.85 36.50L124.85 56.50Q124.85 56.75 125.22 56.90Q125.60 57.05 125.95 57.05L125.95 58.00L117.35 58.00L117.35 57.05Q117.70 57.05 118.07 56.90Q118.45 56.75 118.45 56.50L118.45 36.50ZM144.65 34.00L144.65 41.60L143.70 41.60Q143.70 41.25 143.55 40.92Q143.40 40.60 143.15 40.60L139.90 40.60L139.90 56.50Q139.90 56.75 140.25 56.90Q140.60 57.05 140.95 57.05L140.95 58.00L132.80 58.00L132.80 57.05Q133.15 57.05 133.50 56.90Q133.85 56.75 133.85 56.50L133.85 40.60L131.45 40.60Q131.20 40.60 131.05 40.92Q130.90 41.25 130.90 41.60L129.95 41.60L129.95 34.00L130.90 34.00Q130.90 34.35 131.05 34.67Q131.20 35.00 131.45 35.00L133.85 35.00L133.85 29.15Q133.85 28.90 133.50 28.75Q133.15 28.60 132.80 28.60L132.80 27.65L140.95 27.65L140.95 28.60Q140.60 28.60 140.25 28.75Q139.90 28.90 139.90 29.15L139.90 35.00L143.15 35.00Q143.40 35.00 143.55 34.67Q143.70 34.35 143.70 34.00L144.65 34.00ZM157.65 58.75Q155.10 58.75 152.72 57.70Q150.35 56.65 147.95 54.70Q147.85 54.60 147.70 54.60Q147.30 54.60 146.85 55.05L146.15 54.45L151.15 48.75L151.85 49.40Q151.65 49.65 151.52 50.00Q151.40 50.35 151.60 50.55Q153.25 52.05 154.67 52.77Q156.10 53.50 157.65 53.50Q161.50 53.50 161.50 50.95Q161.50 49.80 160.32 49.17Q159.15 48.55 156.40 47.80Q152.85 46.85 151.25 45.32Q149.65 43.80 149.65 41.15Q149.65 38.00 151.70 36.02Q153.75 34.05 157.30 34.05Q159.10 34.05 160.55 34.60Q162.00 35.15 164.05 36.55Q164.10 36.60 164.25 36.60Q164.50 36.60 164.75 36.45Q165.00 36.30 165.10 36.15L165.85 36.80L161.35 41.90L160.65 41.30Q160.85 41.10 160.92 40.77Q161.00 40.45 160.80 40.25Q159.90 39.55 159.07 39.20Q158.25 38.85 157.25 38.85Q156.20 38.85 155.60 39.25Q155.00 39.65 155.00 40.45Q155.00 41.10 155.35 41.50Q155.70 41.90 156.62 42.30Q157.55 42.70 159.45 43.30Q162.95 44.35 164.95 46.22Q166.95 48.10 166.95 50.85Q166.95 54.90 164.40 56.82Q161.85 58.75 157.65 58.75ZM176 42.30Q174.15 42.30 172.92 41.07Q171.70 39.85 171.70 38.00Q171.70 36.25 172.95 35.02Q174.20 33.80 176 33.80Q177.75 33.80 178.97 35.02Q180.20 36.25 180.20 38.00Q180.20 39.85 178.97 41.07Q177.75 42.30 176 42.30M176 58.55Q174.15 58.55 172.92 57.32Q171.70 56.10 171.70 54.25Q171.70 52.50 172.95 51.27Q174.20 50.05 176 50.05Q177.75 50.05 178.97 51.27Q180.20 52.50 180.20 54.25Q180.20 56.10 178.97 57.32Q177.75 58.55 176 58.55Z"/></g><g transform="translate(0, 64.4)"><path d="M25.35 19.45L25.35 27.45L24.40 27.45Q24.40 27.10 24.25 26.75Q24.10 26.40 23.85 26.40L7.65 26.40L7.65 35.25L20.75 35.25Q21 35.25 21.15 34.90Q21.30 34.55 21.30 34.20L22.25 34.20L22.25 42.20L21.30 42.20Q21.30 41.85 21.15 41.50Q21 41.15 20.75 41.15L7.65 41.15L7.65 56.50Q7.65 56.75 8.03 56.90Q8.40 57.05 8.80 57.05L8.80 58.00L0 58.00L0 57.05Q0.40 57.05 0.78 56.90Q1.15 56.75 1.15 56.50L1.15 22.00Q1.15 21.75 0.78 21.60Q0.40 21.45 0.05 21.45L0.05 20.50L23.85 20.50Q24.10 20.50 24.25 20.15Q24.40 19.80 24.40 19.45L25.35 19.45ZM40.30 33.95Q44.15 33.95 46.95 35.62Q49.75 37.30 51.20 40.15Q52.65 43.00 52.65 46.45Q52.65 47.50 52.50 48.55L34.20 48.55Q34.40 50.95 36.30 52.30Q38.20 53.65 40.85 53.65Q42.65 53.65 43.88 53.15Q45.10 52.65 46.05 51.65Q46.15 51.45 46.15 51.40Q46.15 51.20 46 50.97Q45.85 50.75 45.70 50.65L46.30 49.90L51.85 54.25L51.30 55.00Q50.55 54.55 50.25 54.90Q46.75 59.10 40.85 59.10Q37.05 59.10 34.15 57.42Q31.25 55.75 29.68 52.92Q28.10 50.10 28.10 46.65Q28.10 43.00 29.65 40.10Q31.20 37.20 33.98 35.57Q36.75 33.95 40.30 33.95M46.65 43.90Q46.45 41.85 44.58 40.42Q42.70 39.00 40.35 39.00Q38 39.00 36.30 40.42Q34.60 41.85 34.25 43.90L46.65 43.90ZM71.85 33.50L71.85 41.55L70.90 41.55Q70.90 41.20 70.75 40.75Q70.60 40.30 70.35 40.25L70 40.25Q68.45 40.25 66.88 41.12Q65.30 42.00 64.28 43.42Q63.25 44.85 63.25 46.45L63.25 56.50Q63.25 56.75 63.63 56.90Q64 57.05 64.35 57.05L64.35 58.00L55.95 58.00L55.95 57.05Q56.30 57.05 56.68 56.90Q57.05 56.75 57.05 56.50L57.05 36.50Q57.05 36.25 56.68 36.10Q56.30 35.95 55.95 35.95L55.95 35.00L63.25 35.00L63.25 37.15Q64.60 35.90 66.50 35.15Q68.40 34.40 70.30 34.40L70.35 34.40L70.40 34.40Q70.65 34.40 70.78 34.10Q70.90 33.80 70.90 33.50L71.85 33.50ZM100.35 56.50Q100.35 56.75 100.73 56.90Q101.10 57.05 101.45 57.05L101.45 58.00L94.30 58.00L94.30 56.25Q91.30 58.70 87.15 58.70Q83.45 58.70 80.55 57.20Q77.65 55.70 76.00 52.95Q74.35 50.20 74.35 46.60Q74.35 42.95 76.03 40.12Q77.70 37.30 80.63 35.72Q83.55 34.15 87.15 34.15Q91.30 34.15 94.30 36.50L94.30 22.00Q94.30 21.75 93.95 21.60Q93.60 21.45 93.25 21.45L93.25 20.50L101.40 20.50L101.40 21.45Q101.05 21.45 100.70 21.60Q100.35 21.75 100.35 22.00L100.35 56.50M87.45 53.35Q89.40 53.35 91.03 52.45Q92.65 51.55 93.58 50.02Q94.50 48.50 94.50 46.80Q94.50 43.75 92.53 41.77Q90.55 39.80 87.45 39.80Q84.35 39.80 82.38 41.72Q80.40 43.65 80.40 46.70Q80.40 49.75 82.43 51.55Q84.45 53.35 87.45 53.35ZM111.30 30.80Q109.70 30.80 108.58 29.70Q107.45 28.60 107.45 26.95Q107.45 25.40 108.58 24.27Q109.70 23.15 111.30 23.15Q112.90 23.15 114.00 24.27Q115.10 25.40 115.10 26.95Q115.10 28.60 114.00 29.70Q112.90 30.80 111.30 30.80M108.05 36.50Q108.05 36.25 107.68 36.10Q107.30 35.95 106.95 35.95L106.95 35.00L115.55 35.00L115.55 35.95Q115.20 35.95 114.83 36.10Q114.45 36.25 114.45 36.50L114.45 56.50Q114.45 56.75 114.83 56.90Q115.20 57.05 115.55 57.05L115.55 58.00L106.95 58.00L106.95 57.05Q107.30 57.05 107.68 56.90Q108.05 56.75 108.05 56.50L108.05 36.50ZM145.65 56.50Q145.65 56.75 146.03 56.90Q146.40 57.05 146.80 57.05L146.80 58.00L138 58.00L138 57.05Q138.40 57.05 138.78 56.90Q139.15 56.75 139.15 56.50L139.15 46.10Q139.15 43.55 137.90 41.72Q136.65 39.90 134.15 39.90Q131.60 39.90 130.03 41.60Q128.45 43.30 128.45 46.50L128.45 56.50Q128.45 56.75 128.83 56.90Q129.20 57.05 129.60 57.05L129.60 58.00L120.85 58.00L120.85 57.05Q121.25 57.05 121.63 56.90Q122.00 56.75 122.00 56.50L122.00 36.50Q122.00 36.25 121.63 36.10Q121.25 35.95 120.90 35.95L120.90 35.00L128.45 35.00L128.45 37.05Q129.75 35.85 131.53 35.17Q133.30 34.50 135.15 34.50Q138.35 34.50 140.73 35.85Q143.10 37.20 144.38 39.47Q145.65 41.75 145.65 44.55L145.65 56.50ZM178.45 35.95Q178.10 35.95 177.73 36.10Q177.35 36.25 177.35 36.50L177.35 56.50Q177.35 56.75 177.73 56.90Q178.10 57.05 178.45 57.05L178.45 58.00L171.05 58.00L171.05 55.25Q167.90 58.65 163.10 58.65Q159.45 58.65 156.68 57.17Q153.90 55.70 152.38 52.95Q150.85 50.20 150.85 46.55Q150.85 43.00 152.53 40.22Q154.20 37.45 157.00 35.92Q159.80 34.40 163.10 34.40Q167.90 34.40 171.05 38.10L171.05 35.00L178.45 35.00L178.45 35.95M163.85 53.35Q165.90 53.35 167.53 52.42Q169.15 51.50 170.05 49.97Q170.95 48.45 170.95 46.70Q170.95 43.70 168.98 41.75Q167.00 39.80 163.85 39.80Q160.80 39.80 158.83 41.70Q156.85 43.60 156.85 46.55Q156.85 49.65 158.88 51.50Q160.90 53.35 163.85 53.35ZM207.85 56.50Q207.85 56.75 208.23 56.90Q208.60 57.05 209.00 57.05L209.00 58.00L200.20 58.00L200.20 57.05Q200.60 57.05 200.98 56.90Q201.35 56.75 201.35 56.50L201.35 46.10Q201.35 43.55 200.10 41.72Q198.85 39.90 196.35 39.90Q193.80 39.90 192.23 41.60Q190.65 43.30 190.65 46.50L190.65 56.50Q190.65 56.75 191.03 56.90Q191.40 57.05 191.80 57.05L191.80 58.00L183.05 58.00L183.05 57.05Q183.45 57.05 183.83 56.90Q184.20 56.75 184.20 56.50L184.20 36.50Q184.20 36.25 183.83 36.10Q183.45 35.95 183.10 35.95L183.10 35.00L190.65 35.00L190.65 37.05Q191.95 35.85 193.73 35.17Q195.50 34.50 197.35 34.50Q200.55 34.50 202.93 35.85Q205.30 37.20 206.58 39.47Q207.85 41.75 207.85 44.55L207.85 56.50ZM239.05 56.50Q239.05 56.75 239.43 56.90Q239.80 57.05 240.15 57.05L240.15 58.00L233.00 58.00L233.00 56.25Q230.00 58.70 225.85 58.70Q222.15 58.70 219.25 57.20Q216.35 55.70 214.70 52.95Q213.05 50.20 213.05 46.60Q213.05 42.95 214.73 40.12Q216.40 37.30 219.33 35.72Q222.25 34.15 225.85 34.15Q230.00 34.15 233.00 36.50L233.00 22.00Q233.00 21.75 232.65 21.60Q232.30 21.45 231.95 21.45L231.95 20.50L240.10 20.50L240.10 21.45Q239.75 21.45 239.40 21.60Q239.05 21.75 239.05 22.00L239.05 56.50M226.15 53.35Q228.10 53.35 229.73 52.45Q231.35 51.55 232.28 50.02Q233.20 48.50 233.20 46.80Q233.20 43.75 231.23 41.77Q229.25 39.80 226.15 39.80Q223.05 39.80 221.08 41.72Q219.10 43.65 219.10 46.70Q219.10 49.75 221.13 51.55Q223.15 53.35 226.15 53.35ZM274.40 58.95Q270.10 58.95 266.40 56.92Q262.70 54.90 259.25 51.35Q259.15 51.25 259.00 51.25Q258.55 51.25 258.00 51.80L257.35 51.10L264.30 44.55L264.95 45.25Q264.65 45.50 264.40 45.95Q264.15 46.40 264.30 46.60Q268.95 52.50 274.45 52.50Q276.35 52.50 277.88 51.75Q279.40 51.00 280.25 49.82Q281.10 48.65 281.10 47.40Q281.10 44.45 275.95 42.55L269.80 40.25Q266.10 38.90 264.03 36.55Q261.95 34.20 261.95 30.90Q261.95 27.65 263.48 25.22Q265.00 22.80 267.80 21.50Q270.60 20.20 274.30 20.20Q277.80 20.20 280.18 21.27Q282.55 22.35 285.25 24.55Q285.30 24.60 285.45 24.60Q285.70 24.60 286.03 24.42Q286.35 24.25 286.55 24.05L287.20 24.70L281.00 30.80L280.35 30.10Q280.60 29.85 280.73 29.52Q280.85 29.20 280.65 29.05Q277.40 26.45 274.20 26.45Q271.65 26.45 270.15 27.62Q268.65 28.80 268.65 30.60Q268.65 32.20 269.48 33.05Q270.30 33.90 272.00 34.50L278.05 36.70Q281.20 37.85 283.30 39.12Q285.40 40.40 286.65 42.47Q287.90 44.55 287.90 47.65Q287.90 50.65 286.33 53.22Q284.75 55.80 281.68 57.37Q278.60 58.95 274.40 58.95ZM319.15 35.95Q318.80 35.95 318.43 36.10Q318.05 36.25 318.05 36.50L318.05 56.50Q318.05 56.75 318.43 56.90Q318.80 57.05 319.15 57.05L319.15 58.00L311.75 58.00L311.75 55.25Q308.60 58.65 303.80 58.65Q300.15 58.65 297.38 57.17Q294.60 55.70 293.07 52.95Q291.55 50.20 291.55 46.55Q291.55 43.00 293.23 40.22Q294.90 37.45 297.70 35.92Q300.50 34.40 303.80 34.40Q308.60 34.40 311.75 38.10L311.75 35.00L319.15 35.00L319.15 35.95M304.55 53.35Q306.60 53.35 308.23 52.42Q309.85 51.50 310.75 49.97Q311.65 48.45 311.65 46.70Q311.65 43.70 309.68 41.75Q307.70 39.80 304.55 39.80Q301.50 39.80 299.53 41.70Q297.55 43.60 297.55 46.55Q297.55 49.65 299.57 51.50Q301.60 53.35 304.55 53.35ZM346.25 56.50Q346.25 56.75 346.63 56.90Q347 57.05 347.35 57.05L347.35 58.00L341.15 58.00L341.15 56.15Q338.50 58.45 335 58.45Q329.75 58.45 327.30 55.42Q324.85 52.40 324.85 47.85L324.85 36.50Q324.85 36.25 324.47 36.10Q324.10 35.95 323.75 35.95L323.75 35.00L332.25 35.00L332.25 35.95Q331.90 35.95 331.52 36.10Q331.15 36.25 331.15 36.50L331.15 47.45Q331.15 49.60 332.25 51.07Q333.35 52.55 335.65 52.55Q337.85 52.55 338.95 51.20Q340.05 49.85 340.05 47.75L340.05 36.50Q340.05 36.25 339.68 36.10Q339.30 35.95 338.95 35.95L338.95 35.00L347.35 35.00L347.35 35.95Q347 35.95 346.63 36.10Q346.25 36.25 346.25 36.50L346.25 56.50ZM367.35 33.50L367.35 41.55L366.40 41.55Q366.40 41.20 366.25 40.75Q366.10 40.30 365.85 40.25L365.50 40.25Q363.95 40.25 362.38 41.12Q360.80 42.00 359.77 43.42Q358.75 44.85 358.75 46.45L358.75 56.50Q358.75 56.75 359.13 56.90Q359.50 57.05 359.85 57.05L359.85 58.00L351.45 58.00L351.45 57.05Q351.80 57.05 352.17 56.90Q352.55 56.75 352.55 56.50L352.55 36.50Q352.55 36.25 352.17 36.10Q351.80 35.95 351.45 35.95L351.45 35.00L358.75 35.00L358.75 37.15Q360.10 35.90 362 35.15Q363.90 34.40 365.80 34.40L365.85 34.40L365.90 34.40Q366.15 34.40 366.27 34.10Q366.40 33.80 366.40 33.50L367.35 33.50ZM382.05 33.95Q385.90 33.95 388.70 35.62Q391.50 37.30 392.95 40.15Q394.40 43.00 394.40 46.45Q394.40 47.50 394.25 48.55L375.95 48.55Q376.15 50.95 378.05 52.30Q379.95 53.65 382.60 53.65Q384.40 53.65 385.62 53.15Q386.85 52.65 387.80 51.65Q387.90 51.45 387.90 51.40Q387.90 51.20 387.75 50.97Q387.60 50.75 387.45 50.65L388.05 49.90L393.60 54.25L393.05 55.00Q392.30 54.55 392.00 54.90Q388.50 59.10 382.60 59.10Q378.80 59.10 375.90 57.42Q373.00 55.75 371.42 52.92Q369.85 50.10 369.85 46.65Q369.85 43.00 371.40 40.10Q372.95 37.20 375.72 35.57Q378.50 33.95 382.05 33.95M388.40 43.90Q388.20 41.85 386.32 40.42Q384.45 39.00 382.10 39.00Q379.75 39.00 378.05 40.42Q376.35 41.85 376.00 43.90L388.40 43.90ZM423 56.50Q423 56.75 423.38 56.90Q423.75 57.05 424.15 57.05L424.15 58.00L415.35 58.00L415.35 57.05Q415.75 57.05 416.13 56.90Q416.50 56.75 416.50 56.50L416.50 46.10Q416.50 43.55 415.25 41.72Q414 39.90 411.50 39.90Q408.95 39.90 407.38 41.60Q405.80 43.30 405.80 46.50L405.80 56.50Q405.80 56.75 406.17 56.90Q406.55 57.05 406.95 57.05L406.95 58.00L398.20 58.00L398.20 57.05Q398.60 57.05 398.97 56.90Q399.35 56.75 399.35 56.50L399.35 36.50Q399.35 36.25 398.97 36.10Q398.60 35.95 398.25 35.95L398.25 35.00L405.80 35.00L405.80 37.05Q407.10 35.85 408.88 35.17Q410.65 34.50 412.50 34.50Q415.70 34.50 418.07 35.85Q420.45 37.20 421.72 39.47Q423 41.75 423 44.55L423 56.50ZM443.35 34.40Q446.90 34.40 449.80 35.92Q452.70 37.45 454.38 40.20Q456.05 42.95 456.05 46.55Q456.05 50.20 454.40 52.92Q452.75 55.65 449.88 57.15Q447 58.65 443.35 58.65Q439.15 58.65 436.05 56.15L436.05 58.00L428.75 58.00L428.75 57.05Q429.10 57.05 429.47 56.90Q429.85 56.75 429.85 56.50L429.85 22.00Q429.85 21.75 429.47 21.60Q429.10 21.45 428.75 21.45L428.75 20.50L437.15 20.50L437.15 21.45Q436.80 21.45 436.43 21.60Q436.05 21.75 436.05 22.00L436.05 36.75Q439.05 34.40 443.35 34.40M442.95 53.35Q445.95 53.35 447.97 51.50Q450 49.65 450 46.55Q450 43.65 448 41.72Q446 39.80 442.95 39.80Q439.85 39.80 437.85 41.75Q435.85 43.70 435.85 46.70Q435.85 48.45 436.77 49.97Q437.70 51.50 439.35 52.42Q441 53.35 442.95 53.35ZM487.15 35.95Q486.80 35.95 486.43 36.10Q486.05 36.25 486.05 36.50L486.05 56.50Q486.05 56.75 486.43 56.90Q486.80 57.05 487.15 57.05L487.15 58.00L479.75 58.00L479.75 55.25Q476.60 58.65 471.80 58.65Q468.15 58.65 465.38 57.17Q462.60 55.70 461.07 52.95Q459.55 50.20 459.55 46.55Q459.55 43.00 461.23 40.22Q462.90 37.45 465.70 35.92Q468.50 34.40 471.80 34.40Q476.60 34.40 479.75 38.10L479.75 35.00L487.15 35.00L487.15 35.95M472.55 53.35Q474.60 53.35 476.23 52.42Q477.85 51.50 478.75 49.97Q479.65 48.45 479.65 46.70Q479.65 43.70 477.68 41.75Q475.70 39.80 472.55 39.80Q469.50 39.80 467.53 41.70Q465.55 43.60 465.55 46.55Q465.55 49.65 467.57 51.50Q469.60 53.35 472.55 53.35ZM503.15 59.05Q499.95 59.05 497.20 57.45Q494.45 55.85 492.82 53.10Q491.20 50.35 491.20 47.10Q491.20 43.25 492.82 40.32Q494.45 37.40 497.20 35.82Q499.95 34.25 503.25 34.25Q505.60 34.25 507.27 34.80Q508.95 35.35 509.97 36.12Q511 36.90 512.55 38.30Q512.65 38.40 512.80 38.40Q513 38.40 513.27 38.25Q513.55 38.10 513.70 37.95L514.35 38.65L508.95 43.65L508.30 42.95Q508.55 42.75 508.72 42.37Q508.90 42.00 508.75 41.80Q506.95 39.60 503.80 39.60Q500.95 39.60 499.02 41.50Q497.10 43.40 497.10 46.45Q497.10 49.60 498.95 51.50Q500.80 53.40 503.80 53.40Q505.30 53.40 506.25 53.02Q507.20 52.65 508.40 51.60Q508.50 51.50 508.50 51.35Q508.50 51.05 508.15 50.70L508.75 49.95L514.15 54.45L513.55 55.15Q512.75 54.70 512.45 55.00Q510.60 57.05 508.57 58.05Q506.55 59.05 503.15 59.05ZM542.20 56.50Q542.20 56.75 542.58 56.90Q542.95 57.05 543.35 57.05L543.35 58.00L534.55 58.00L534.55 57.05Q534.95 57.05 535.33 56.90Q535.70 56.75 535.70 56.50L535.70 46.10Q535.70 43.55 534.45 41.72Q533.20 39.90 530.70 39.90Q528.15 39.90 526.45 41.60Q524.75 43.30 524.75 46.50L524.75 56.50Q524.75 56.75 525.13 56.90Q525.50 57.05 525.85 57.05L525.85 58.00L517.40 58.00L517.40 57.05Q517.75 57.05 518.13 56.90Q518.50 56.75 518.50 56.50L518.50 22.00Q518.50 21.75 518.13 21.60Q517.75 21.45 517.40 21.45L517.40 20.50L525.85 20.50L525.85 21.45Q525.50 21.45 525.13 21.60Q524.75 21.75 524.75 22.00L524.75 37.25Q526.05 36.00 527.93 35.25Q529.80 34.50 531.70 34.50Q534.95 34.50 537.33 35.85Q539.70 37.20 540.95 39.47Q542.20 41.75 542.20 44.55L542.20 56.50Z"/></g><g transform="translate(0, 128.8)"><path d=""/></g><g transform="translate(0, 193.20000000000002)"><path d="M32.15 19.50L32.15 27.20L31.20 27.20Q31.20 26.90 31.05 26.55Q30.90 26.20 30.65 26.20L19.50 26.20L19.50 56.50Q19.50 56.75 19.90 56.90Q20.30 57.05 20.70 57.05L20.70 58.00L11.50 58.00L11.50 57.05Q11.90 57.05 12.30 56.90Q12.70 56.75 12.70 56.50L12.70 26.20L1.50 26.20Q1.25 26.20 1.10 26.55Q0.95 26.90 0.95 27.20L0 27.20L0 19.50L0.95 19.50Q0.95 19.80 1.10 20.15Q1.25 20.50 1.50 20.50L30.65 20.50Q30.90 20.50 31.05 20.15Q31.20 19.80 31.20 19.50L32.15 19.50ZM60 56.50Q60 56.75 60.38 56.90Q60.75 57.05 61.15 57.05L61.15 58.00L52.35 58.00L52.35 57.05Q52.75 57.05 53.13 56.90Q53.50 56.75 53.50 56.50L53.50 46.10Q53.50 43.55 52.25 41.72Q51 39.90 48.50 39.90Q45.95 39.90 44.25 41.60Q42.55 43.30 42.55 46.50L42.55 56.50Q42.55 56.75 42.92 56.90Q43.30 57.05 43.65 57.05L43.65 58.00L35.20 58.00L35.20 57.05Q35.55 57.05 35.92 56.90Q36.30 56.75 36.30 56.50L36.30 22.00Q36.30 21.75 35.92 21.60Q35.55 21.45 35.20 21.45L35.20 20.50L43.65 20.50L43.65 21.45Q43.30 21.45 42.92 21.60Q42.55 21.75 42.55 22.00L42.55 37.25Q43.85 36.00 45.73 35.25Q47.60 34.50 49.50 34.50Q52.75 34.50 55.13 35.85Q57.50 37.20 58.75 39.47Q60 41.75 60 44.55L60 56.50ZM70.80 30.80Q69.20 30.80 68.08 29.70Q66.95 28.60 66.95 26.95Q66.95 25.40 68.08 24.27Q69.20 23.15 70.80 23.15Q72.40 23.15 73.50 24.27Q74.60 25.40 74.60 26.95Q74.60 28.60 73.50 29.70Q72.40 30.80 70.80 30.80M67.55 36.50Q67.55 36.25 67.17 36.10Q66.80 35.95 66.45 35.95L66.45 35.00L75.05 35.00L75.05 35.95Q74.70 35.95 74.33 36.10Q73.95 36.25 73.95 36.50L73.95 56.50Q73.95 56.75 74.33 56.90Q74.70 57.05 75.05 57.05L75.05 58.00L66.45 58.00L66.45 57.05Q66.80 57.05 67.17 56.90Q67.55 56.75 67.55 56.50L67.55 36.50ZM95.75 33.50L95.75 41.55L94.80 41.55Q94.80 41.20 94.65 40.75Q94.50 40.30 94.25 40.25L93.90 40.25Q92.35 40.25 90.78 41.12Q89.20 42.00 88.18 43.42Q87.15 44.85 87.15 46.45L87.15 56.50Q87.15 56.75 87.53 56.90Q87.90 57.05 88.25 57.05L88.25 58.00L79.85 58.00L79.85 57.05Q80.20 57.05 80.58 56.90Q80.95 56.75 80.95 56.50L80.95 36.50Q80.95 36.25 80.58 36.10Q80.20 35.95 79.85 35.95L79.85 35.00L87.15 35.00L87.15 37.15Q88.50 35.90 90.40 35.15Q92.30 34.40 94.20 34.40L94.25 34.40L94.30 34.40Q94.55 34.40 94.68 34.10Q94.80 33.80 94.80 33.50L95.75 33.50ZM124.25 56.50Q124.25 56.75 124.63 56.90Q125.00 57.05 125.35 57.05L125.35 58.00L118.20 58.00L118.20 56.25Q115.20 58.70 111.05 58.70Q107.35 58.70 104.45 57.20Q101.55 55.70 99.90 52.95Q98.25 50.20 98.25 46.60Q98.25 42.95 99.93 40.12Q101.60 37.30 104.53 35.72Q107.45 34.15 111.05 34.15Q115.20 34.15 118.20 36.50L118.20 22.00Q118.20 21.75 117.85 21.60Q117.50 21.45 117.15 21.45L117.15 20.50L125.30 20.50L125.30 21.45Q124.95 21.45 124.60 21.60Q124.25 21.75 124.25 22.00L124.25 56.50M111.35 53.35Q113.30 53.35 114.93 52.45Q116.55 51.55 117.48 50.02Q118.40 48.50 118.40 46.80Q118.40 43.75 116.43 41.77Q114.45 39.80 111.35 39.80Q108.25 39.80 106.28 41.72Q104.30 43.65 104.30 46.70Q104.30 49.75 106.33 51.55Q108.35 53.35 111.35 53.35ZM159.30 34.40Q162.85 34.40 165.65 35.92Q168.45 37.45 170.03 40.22Q171.60 43.00 171.60 46.60Q171.60 50.25 170.03 53.00Q168.45 55.75 165.63 57.25Q162.80 58.75 159.15 58.75Q155.00 58.75 151.70 55.95L151.70 71.05Q151.70 71.30 152.08 71.45Q152.45 71.60 152.80 71.60L152.80 72.55L144.35 72.55L144.35 71.60Q144.70 71.60 145.08 71.45Q145.45 71.30 145.45 71.05L145.45 36.50Q145.45 36.25 145.08 36.10Q144.70 35.95 144.35 35.95L144.35 35.00L151.70 35.00L151.70 37.10Q155.10 34.40 159.30 34.40M158.65 53.40Q161.60 53.40 163.60 51.60Q165.60 49.80 165.60 46.70Q165.60 43.70 163.65 41.77Q161.70 39.85 158.65 39.85Q155.50 39.85 153.53 41.77Q151.55 43.70 151.55 46.75Q151.55 48.45 152.48 50.00Q153.40 51.55 155.03 52.47Q156.65 53.40 158.65 53.40ZM202.70 35.95Q202.35 35.95 201.98 36.10Q201.60 36.25 201.60 36.50L201.60 56.50Q201.60 56.75 201.98 56.90Q202.35 57.05 202.70 57.05L202.70 58.00L195.30 58.00L195.30 55.25Q192.15 58.65 187.35 58.65Q183.70 58.65 180.93 57.17Q178.15 55.70 176.63 52.95Q175.10 50.20 175.10 46.55Q175.10 43.00 176.78 40.22Q178.45 37.45 181.25 35.92Q184.05 34.40 187.35 34.40Q192.15 34.40 195.30 38.10L195.30 35.00L202.70 35.00L202.70 35.95M188.10 53.35Q190.15 53.35 191.78 52.42Q193.40 51.50 194.30 49.97Q195.20 48.45 195.20 46.70Q195.20 43.70 193.23 41.75Q191.25 39.80 188.10 39.80Q185.05 39.80 183.08 41.70Q181.10 43.60 181.10 46.55Q181.10 49.65 183.13 51.50Q185.15 53.35 188.10 53.35ZM222.70 33.50L222.70 41.55L221.75 41.55Q221.75 41.20 221.60 40.75Q221.45 40.30 221.20 40.25L220.85 40.25Q219.30 40.25 217.73 41.12Q216.15 42.00 215.13 43.42Q214.10 44.85 214.10 46.45L214.10 56.50Q214.10 56.75 214.48 56.90Q214.85 57.05 215.20 57.05L215.20 58.00L206.80 58.00L206.80 57.05Q207.15 57.05 207.53 56.90Q207.90 56.75 207.90 56.50L207.90 36.50Q207.90 36.25 207.53 36.10Q207.15 35.95 206.80 35.95L206.80 35.00L214.10 35.00L214.10 37.15Q215.45 35.90 217.35 35.15Q219.25 34.40 221.15 34.40L221.20 34.40L221.25 34.40Q221.50 34.40 221.63 34.10Q221.75 33.80 221.75 33.50L222.70 33.50ZM239.15 34.00L239.15 41.60L238.20 41.60Q238.20 41.25 238.05 40.92Q237.90 40.60 237.65 40.60L234.40 40.60L234.40 56.50Q234.40 56.75 234.75 56.90Q235.10 57.05 235.45 57.05L235.45 58.00L227.30 58.00L227.30 57.05Q227.65 57.05 228.00 56.90Q228.35 56.75 228.35 56.50L228.35 40.60L225.95 40.60Q225.70 40.60 225.55 40.92Q225.40 41.25 225.40 41.60L224.45 41.60L224.45 34.00L225.40 34.00Q225.40 34.35 225.55 34.67Q225.70 35.00 225.95 35.00L228.35 35.00L228.35 29.15Q228.35 28.90 228.00 28.75Q227.65 28.60 227.30 28.60L227.30 27.65L235.45 27.65L235.45 28.60Q235.10 28.60 234.75 28.75Q234.40 28.90 234.40 29.15L234.40 35.00L237.65 35.00Q237.90 35.00 238.05 34.67Q238.20 34.35 238.20 34.00L239.15 34.00ZM269.75 35.95Q268.70 35.95 268.45 36.35L250.95 70.80Q250.90 70.85 250.90 70.95Q250.90 71.25 251.25 71.45Q251.60 71.65 252.15 71.65L252.15 72.60L242.75 72.60L242.75 71.65Q243.80 71.65 244.05 71.25L252.20 55.20L241.95 36.30Q241.75 35.95 240.65 35.95L240.65 35.00L249.90 35.00L249.90 35.95Q249.30 35.95 249.18 36.20Q249.05 36.45 249.25 36.75L255.60 48.50L261.55 36.80Q261.60 36.75 261.60 36.65Q261.60 36.35 261.25 36.15Q260.90 35.95 260.35 35.95L260.35 35.00L269.75 35.00L269.75 35.95ZM313.60 35.95Q313.25 35.95 312.88 36.10Q312.50 36.25 312.50 36.50L312.50 56.50Q312.50 56.75 312.88 56.90Q313.25 57.05 313.60 57.05L313.60 58.00L306.20 58.00L306.20 55.25Q303.05 58.65 298.25 58.65Q294.60 58.65 291.82 57.17Q289.05 55.70 287.52 52.95Q286 50.20 286 46.55Q286 43.00 287.68 40.22Q289.35 37.45 292.15 35.92Q294.95 34.40 298.25 34.40Q303.05 34.40 306.20 38.10L306.20 35.00L313.60 35.00L313.60 35.95M299 53.35Q301.05 53.35 302.68 52.42Q304.30 51.50 305.20 49.97Q306.10 48.45 306.10 46.70Q306.10 43.70 304.13 41.75Q302.15 39.80 299 39.80Q295.95 39.80 293.98 41.70Q292 43.60 292 46.55Q292 49.65 294.02 51.50Q296.05 53.35 299 53.35ZM331.60 34.00L331.60 41.60L330.65 41.60Q330.65 41.25 330.50 40.92Q330.35 40.60 330.10 40.60L326.85 40.60L326.85 56.50Q326.85 56.75 327.20 56.90Q327.55 57.05 327.90 57.05L327.90 58.00L319.75 58.00L319.75 57.05Q320.10 57.05 320.45 56.90Q320.80 56.75 320.80 56.50L320.80 40.60L318.40 40.60Q318.15 40.60 318 40.92Q317.85 41.25 317.85 41.60L316.90 41.60L316.90 34.00L317.85 34.00Q317.85 34.35 318 34.67Q318.15 35.00 318.40 35.00L320.80 35.00L320.80 29.15Q320.80 28.90 320.45 28.75Q320.10 28.60 319.75 28.60L319.75 27.65L327.90 27.65L327.90 28.60Q327.55 28.60 327.20 28.75Q326.85 28.90 326.85 29.15L326.85 35.00L330.10 35.00Q330.35 35.00 330.50 34.67Q330.65 34.35 330.65 34.00L331.60 34.00ZM348.30 34.00L348.30 41.60L347.35 41.60Q347.35 41.25 347.20 40.92Q347.05 40.60 346.80 40.60L343.55 40.60L343.55 56.50Q343.55 56.75 343.90 56.90Q344.25 57.05 344.60 57.05L344.60 58.00L336.45 58.00L336.45 57.05Q336.80 57.05 337.15 56.90Q337.50 56.75 337.50 56.50L337.50 40.60L335.10 40.60Q334.85 40.60 334.70 40.92Q334.55 41.25 334.55 41.60L333.60 41.60L333.60 34.00L334.55 34.00Q334.55 34.35 334.70 34.67Q334.85 35.00 335.10 35.00L337.50 35.00L337.50 29.15Q337.50 28.90 337.15 28.75Q336.80 28.60 336.45 28.60L336.45 27.65L344.60 27.65L344.60 28.60Q344.25 28.60 343.90 28.75Q343.55 28.90 343.55 29.15L343.55 35.00L346.80 35.00Q347.05 35.00 347.20 34.67Q347.35 34.35 347.35 34.00L348.30 34.00ZM367.00 33.50L367.00 41.55L366.05 41.55Q366.05 41.20 365.90 40.75Q365.75 40.30 365.50 40.25L365.15 40.25Q363.60 40.25 362.02 41.12Q360.45 42.00 359.42 43.42Q358.40 44.85 358.40 46.45L358.40 56.50Q358.40 56.75 358.77 56.90Q359.15 57.05 359.50 57.05L359.50 58.00L351.10 58.00L351.10 57.05Q351.45 57.05 351.82 56.90Q352.20 56.75 352.20 56.50L352.20 36.50Q352.20 36.25 351.82 36.10Q351.45 35.95 351.10 35.95L351.10 35.00L358.40 35.00L358.40 37.15Q359.75 35.90 361.65 35.15Q363.55 34.40 365.45 34.40L365.50 34.40L365.55 34.40Q365.80 34.40 365.92 34.10Q366.05 33.80 366.05 33.50L367.00 33.50ZM375.10 30.80Q373.50 30.80 372.37 29.70Q371.25 28.60 371.25 26.95Q371.25 25.40 372.37 24.27Q373.50 23.15 375.10 23.15Q376.70 23.15 377.80 24.27Q378.90 25.40 378.90 26.95Q378.90 28.60 377.80 29.70Q376.70 30.80 375.10 30.80M371.85 36.50Q371.85 36.25 371.47 36.10Q371.10 35.95 370.75 35.95L370.75 35.00L379.35 35.00L379.35 35.95Q379.00 35.95 378.62 36.10Q378.25 36.25 378.25 36.50L378.25 56.50Q378.25 56.75 378.62 56.90Q379.00 57.05 379.35 57.05L379.35 58.00L370.75 58.00L370.75 57.05Q371.10 57.05 371.47 56.90Q371.85 56.75 371.85 56.50L371.85 36.50ZM399.25 34.40Q402.80 34.40 405.70 35.92Q408.60 37.45 410.27 40.20Q411.95 42.95 411.95 46.55Q411.95 50.20 410.30 52.92Q408.65 55.65 405.77 57.15Q402.90 58.65 399.25 58.65Q395.05 58.65 391.95 56.15L391.95 58.00L384.65 58.00L384.65 57.05Q385.00 57.05 385.37 56.90Q385.75 56.75 385.75 56.50L385.75 22.00Q385.75 21.75 385.37 21.60Q385.00 21.45 384.65 21.45L384.65 20.50L393.05 20.50L393.05 21.45Q392.70 21.45 392.32 21.60Q391.95 21.75 391.95 22.00L391.95 36.75Q394.95 34.40 399.25 34.40M398.85 53.35Q401.85 53.35 403.87 51.50Q405.90 49.65 405.90 46.55Q405.90 43.65 403.90 41.72Q401.90 39.80 398.85 39.80Q395.75 39.80 393.75 41.75Q391.75 43.70 391.75 46.70Q391.75 48.45 392.67 49.97Q393.60 51.50 395.25 52.42Q396.90 53.35 398.85 53.35ZM438.50 56.50Q438.50 56.75 438.88 56.90Q439.25 57.05 439.60 57.05L439.60 58.00L433.40 58.00L433.40 56.15Q430.75 58.45 427.25 58.45Q422 58.45 419.55 55.42Q417.10 52.40 417.10 47.85L417.10 36.50Q417.10 36.25 416.72 36.10Q416.35 35.95 416 35.95L416 35.00L424.50 35.00L424.50 35.95Q424.15 35.95 423.77 36.10Q423.40 36.25 423.40 36.50L423.40 47.45Q423.40 49.60 424.50 51.07Q425.60 52.55 427.90 52.55Q430.10 52.55 431.20 51.20Q432.30 49.85 432.30 47.75L432.30 36.50Q432.30 36.25 431.93 36.10Q431.55 35.95 431.20 35.95L431.20 35.00L439.60 35.00L439.60 35.95Q439.25 35.95 438.88 36.10Q438.50 36.25 438.50 36.50L438.50 56.50ZM457.60 34.00L457.60 41.60L456.65 41.60Q456.65 41.25 456.50 40.92Q456.35 40.60 456.10 40.60L452.85 40.60L452.85 56.50Q452.85 56.75 453.20 56.90Q453.55 57.05 453.90 57.05L453.90 58.00L445.75 58.00L445.75 57.05Q446.10 57.05 446.45 56.90Q446.80 56.75 446.80 56.50L446.80 40.60L444.40 40.60Q444.15 40.60 444 40.92Q443.85 41.25 443.85 41.60L442.90 41.60L442.90 34.00L443.85 34.00Q443.85 34.35 444 34.67Q444.15 35.00 444.40 35.00L446.80 35.00L446.80 29.15Q446.80 28.90 446.45 28.75Q446.10 28.60 445.75 28.60L445.75 27.65L453.90 27.65L453.90 28.60Q453.55 28.60 453.20 28.75Q452.85 28.90 452.85 29.15L452.85 35.00L456.10 35.00Q456.35 35.00 456.50 34.67Q456.65 34.35 456.65 34.00L457.60 34.00ZM465.95 30.80Q464.35 30.80 463.22 29.70Q462.10 28.60 462.10 26.95Q462.10 25.40 463.22 24.27Q464.35 23.15 465.95 23.15Q467.55 23.15 468.65 24.27Q469.75 25.40 469.75 26.95Q469.75 28.60 468.65 29.70Q467.55 30.80 465.95 30.80M462.70 36.50Q462.70 36.25 462.32 36.10Q461.95 35.95 461.60 35.95L461.60 35.00L470.20 35.00L470.20 35.95Q469.85 35.95 469.47 36.10Q469.10 36.25 469.10 36.50L469.10 56.50Q469.10 56.75 469.47 56.90Q469.85 57.05 470.20 57.05L470.20 58.00L461.60 58.00L461.60 57.05Q461.95 57.05 462.32 56.90Q462.70 56.75 462.70 56.50L462.70 36.50ZM487.45 58.60Q483.75 58.60 480.93 57.02Q478.10 55.45 476.52 52.70Q474.95 49.95 474.95 46.50Q474.95 43.10 476.52 40.30Q478.10 37.50 480.95 35.87Q483.80 34.25 487.45 34.25Q490.95 34.25 493.80 35.82Q496.65 37.40 498.30 40.17Q499.95 42.95 499.95 46.50Q499.95 49.60 498.47 52.37Q497 55.15 494.15 56.87Q491.30 58.60 487.45 58.60M487.45 52.85Q490.40 52.85 492.22 51.12Q494.05 49.40 494.05 46.65Q494.05 43.80 492.22 41.95Q490.40 40.10 487.45 40.10Q484.70 40.10 482.85 41.92Q481 43.75 481 46.50Q481 49.40 482.85 51.12Q484.70 52.85 487.45 52.85ZM528.80 56.50Q528.80 56.75 529.17 56.90Q529.55 57.05 529.95 57.05L529.95 58.00L521.15 58.00L521.15 57.05Q521.55 57.05 521.92 56.90Q522.30 56.75 522.30 56.50L522.30 46.10Q522.30 43.55 521.05 41.72Q519.80 39.90 517.30 39.90Q514.75 39.90 513.17 41.60Q511.60 43.30 511.60 46.50L511.60 56.50Q511.60 56.75 511.97 56.90Q512.35 57.05 512.75 57.05L512.75 58.00L504 58.00L504 57.05Q504.40 57.05 504.77 56.90Q505.15 56.75 505.15 56.50L505.15 36.50Q505.15 36.25 504.77 36.10Q504.40 35.95 504.05 35.95L504.05 35.00L511.60 35.00L511.60 37.05Q512.90 35.85 514.67 35.17Q516.45 34.50 518.30 34.50Q521.50 34.50 523.88 35.85Q526.25 37.20 527.52 39.47Q528.80 41.75 528.80 44.55L528.80 56.50ZM544.25 58.75Q541.70 58.75 539.33 57.70Q536.95 56.65 534.55 54.70Q534.45 54.60 534.30 54.60Q533.90 54.60 533.45 55.05L532.75 54.45L537.75 48.75L538.45 49.40Q538.25 49.65 538.13 50.00Q538 50.35 538.20 50.55Q539.85 52.05 541.27 52.77Q542.70 53.50 544.25 53.50Q548.10 53.50 548.10 50.95Q548.10 49.80 546.92 49.17Q545.75 48.55 543 47.80Q539.45 46.85 537.85 45.32Q536.25 43.80 536.25 41.15Q536.25 38.00 538.30 36.02Q540.35 34.05 543.90 34.05Q545.70 34.05 547.15 34.60Q548.60 35.15 550.65 36.55Q550.70 36.60 550.85 36.60Q551.10 36.60 551.35 36.45Q551.60 36.30 551.70 36.15L552.45 36.80L547.95 41.90L547.25 41.30Q547.45 41.10 547.52 40.77Q547.60 40.45 547.40 40.25Q546.50 39.55 545.67 39.20Q544.85 38.85 543.85 38.85Q542.80 38.85 542.20 39.25Q541.60 39.65 541.60 40.45Q541.60 41.10 541.95 41.50Q542.30 41.90 543.23 42.30Q544.15 42.70 546.05 43.30Q549.55 44.35 551.55 46.22Q553.55 48.10 553.55 50.85Q553.55 54.90 551 56.82Q548.45 58.75 544.25 58.75ZM562.60 42.30Q560.75 42.30 559.52 41.07Q558.30 39.85 558.30 38.00Q558.30 36.25 559.55 35.02Q560.80 33.80 562.60 33.80Q564.35 33.80 565.57 35.02Q566.80 36.25 566.80 38.00Q566.80 39.85 565.57 41.07Q564.35 42.30 562.60 42.30M562.60 58.55Q560.75 58.55 559.52 57.32Q558.30 56.10 558.30 54.25Q558.30 52.50 559.55 51.27Q560.80 50.05 562.60 50.05Q564.35 50.05 565.57 51.27Q566.80 52.50 566.80 54.25Q566.80 56.10 565.57 57.32Q564.35 58.55 562.60 58.55Z"/></g><g transform="translate(0, 257.6)"><path d="M11.95 59.05Q8.75 59.05 6 57.45Q3.25 55.85 1.63 53.10Q0 50.35 0 47.10Q0 43.25 1.63 40.32Q3.25 37.40 6 35.82Q8.75 34.25 12.05 34.25Q14.40 34.25 16.07 34.80Q17.75 35.35 18.78 36.12Q19.80 36.90 21.35 38.30Q21.45 38.40 21.60 38.40Q21.80 38.40 22.08 38.25Q22.35 38.10 22.50 37.95L23.15 38.65L17.75 43.65L17.10 42.95Q17.35 42.75 17.53 42.37Q17.70 42.00 17.55 41.80Q15.75 39.60 12.60 39.60Q9.75 39.60 7.83 41.50Q5.90 43.40 5.90 46.45Q5.90 49.60 7.75 51.50Q9.60 53.40 12.60 53.40Q14.10 53.40 15.05 53.02Q16 52.65 17.20 51.60Q17.30 51.50 17.30 51.35Q17.30 51.05 16.95 50.70L17.55 49.95L22.95 54.45L22.35 55.15Q21.55 54.70 21.25 55.00Q19.40 57.05 17.38 58.05Q15.35 59.05 11.95 59.05ZM51 56.50Q51 56.75 51.38 56.90Q51.75 57.05 52.15 57.05L52.15 58.00L43.35 58.00L43.35 57.05Q43.75 57.05 44.13 56.90Q44.50 56.75 44.50 56.50L44.50 46.10Q44.50 43.55 43.25 41.72Q42 39.90 39.50 39.90Q36.95 39.90 35.25 41.60Q33.55 43.30 33.55 46.50L33.55 56.50Q33.55 56.75 33.93 56.90Q34.30 57.05 34.65 57.05L34.65 58.00L26.20 58.00L26.20 57.05Q26.55 57.05 26.93 56.90Q27.30 56.75 27.30 56.50L27.30 22.00Q27.30 21.75 26.93 21.60Q26.55 21.45 26.20 21.45L26.20 20.50L34.65 20.50L34.65 21.45Q34.30 21.45 33.93 21.60Q33.55 21.75 33.55 22.00L33.55 37.25Q34.85 36.00 36.73 35.25Q38.60 34.50 40.50 34.50Q43.75 34.50 46.13 35.85Q48.50 37.20 49.75 39.47Q51 41.75 51 44.55L51 56.50ZM68.40 33.95Q72.25 33.95 75.05 35.62Q77.85 37.30 79.30 40.15Q80.75 43.00 80.75 46.45Q80.75 47.50 80.60 48.55L62.30 48.55Q62.50 50.95 64.40 52.30Q66.30 53.65 68.95 53.65Q70.75 53.65 71.98 53.15Q73.20 52.65 74.15 51.65Q74.25 51.45 74.25 51.40Q74.25 51.20 74.10 50.97Q73.95 50.75 73.80 50.65L74.40 49.90L79.95 54.25L79.40 55.00Q78.65 54.55 78.35 54.90Q74.85 59.10 68.95 59.10Q65.15 59.10 62.25 57.42Q59.35 55.75 57.78 52.92Q56.20 50.10 56.20 46.65Q56.20 43.00 57.75 40.10Q59.30 37.20 62.08 35.57Q64.85 33.95 68.40 33.95M74.75 43.90Q74.55 41.85 72.68 40.42Q70.80 39.00 68.45 39.00Q66.10 39.00 64.40 40.42Q62.70 41.85 62.35 43.90L74.75 43.90ZM94.25 58.75Q91.70 58.75 89.33 57.70Q86.95 56.65 84.55 54.70Q84.45 54.60 84.30 54.60Q83.90 54.60 83.45 55.05L82.75 54.45L87.75 48.75L88.45 49.40Q88.25 49.65 88.13 50.00Q88 50.35 88.20 50.55Q89.85 52.05 91.28 52.77Q92.70 53.50 94.25 53.50Q98.10 53.50 98.10 50.95Q98.10 49.80 96.92 49.17Q95.75 48.55 93 47.80Q89.45 46.85 87.85 45.32Q86.25 43.80 86.25 41.15Q86.25 38.00 88.30 36.02Q90.35 34.05 93.90 34.05Q95.70 34.05 97.15 34.60Q98.60 35.15 100.65 36.55Q100.70 36.60 100.85 36.60Q101.10 36.60 101.35 36.45Q101.60 36.30 101.70 36.15L102.45 36.80L97.95 41.90L97.25 41.30Q97.45 41.10 97.53 40.77Q97.60 40.45 97.40 40.25Q96.50 39.55 95.67 39.20Q94.85 38.85 93.85 38.85Q92.80 38.85 92.20 39.25Q91.60 39.65 91.60 40.45Q91.60 41.10 91.95 41.50Q92.30 41.90 93.22 42.30Q94.15 42.70 96.05 43.30Q99.55 44.35 101.55 46.22Q103.55 48.10 103.55 50.85Q103.55 54.90 101 56.82Q98.45 58.75 94.25 58.75ZM116.80 58.75Q114.25 58.75 111.88 57.70Q109.50 56.65 107.10 54.70Q107 54.60 106.85 54.60Q106.45 54.60 106 55.05L105.30 54.45L110.30 48.75L111 49.40Q110.80 49.65 110.67 50.00Q110.55 50.35 110.75 50.55Q112.40 52.05 113.83 52.77Q115.25 53.50 116.80 53.50Q120.65 53.50 120.65 50.95Q120.65 49.80 119.47 49.17Q118.30 48.55 115.55 47.80Q112 46.85 110.40 45.32Q108.80 43.80 108.80 41.15Q108.80 38.00 110.85 36.02Q112.90 34.05 116.45 34.05Q118.25 34.05 119.70 34.60Q121.15 35.15 123.20 36.55Q123.25 36.60 123.40 36.60Q123.65 36.60 123.90 36.45Q124.15 36.30 124.25 36.15L125 36.80L120.50 41.90L119.80 41.30Q120 41.10 120.08 40.77Q120.15 40.45 119.95 40.25Q119.05 39.55 118.22 39.20Q117.40 38.85 116.40 38.85Q115.35 38.85 114.75 39.25Q114.15 39.65 114.15 40.45Q114.15 41.10 114.50 41.50Q114.85 41.90 115.78 42.30Q116.70 42.70 118.60 43.30Q122.10 44.35 124.10 46.22Q126.10 48.10 126.10 50.85Q126.10 54.90 123.55 56.82Q121 58.75 116.80 58.75ZM158.80 34.40Q162.35 34.40 165.15 35.92Q167.95 37.45 169.53 40.22Q171.10 43.00 171.10 46.60Q171.10 50.25 169.53 53.00Q167.95 55.75 165.13 57.25Q162.30 58.75 158.65 58.75Q154.50 58.75 151.20 55.95L151.20 71.05Q151.20 71.30 151.57 71.45Q151.95 71.60 152.30 71.60L152.30 72.55L143.85 72.55L143.85 71.60Q144.20 71.60 144.57 71.45Q144.95 71.30 144.95 71.05L144.95 36.50Q144.95 36.25 144.57 36.10Q144.20 35.95 143.85 35.95L143.85 35.00L151.20 35.00L151.20 37.10Q154.60 34.40 158.80 34.40M158.15 53.40Q161.10 53.40 163.10 51.60Q165.10 49.80 165.10 46.70Q165.10 43.70 163.15 41.77Q161.20 39.85 158.15 39.85Q155 39.85 153.03 41.77Q151.05 43.70 151.05 46.75Q151.05 48.45 151.97 50.00Q152.90 51.55 154.53 52.47Q156.15 53.40 158.15 53.40ZM180.20 30.80Q178.60 30.80 177.47 29.70Q176.35 28.60 176.35 26.95Q176.35 25.40 177.47 24.27Q178.60 23.15 180.20 23.15Q181.80 23.15 182.90 24.27Q184 25.40 184 26.95Q184 28.60 182.90 29.70Q181.80 30.80 180.20 30.80M176.95 36.50Q176.95 36.25 176.57 36.10Q176.20 35.95 175.85 35.95L175.85 35.00L184.45 35.00L184.45 35.95Q184.10 35.95 183.72 36.10Q183.35 36.25 183.35 36.50L183.35 56.50Q183.35 56.75 183.72 56.90Q184.10 57.05 184.45 57.05L184.45 58.00L175.85 58.00L175.85 57.05Q176.20 57.05 176.57 56.90Q176.95 56.75 176.95 56.50L176.95 36.50ZM201.40 33.95Q205.25 33.95 208.05 35.62Q210.85 37.30 212.30 40.15Q213.75 43.00 213.75 46.45Q213.75 47.50 213.60 48.55L195.30 48.55Q195.50 50.95 197.40 52.30Q199.30 53.65 201.95 53.65Q203.75 53.65 204.97 53.15Q206.20 52.65 207.15 51.65Q207.25 51.45 207.25 51.40Q207.25 51.20 207.10 50.97Q206.95 50.75 206.80 50.65L207.40 49.90L212.95 54.25L212.40 55.00Q211.65 54.55 211.35 54.90Q207.85 59.10 201.95 59.10Q198.15 59.10 195.25 57.42Q192.35 55.75 190.77 52.92Q189.20 50.10 189.20 46.65Q189.20 43.00 190.75 40.10Q192.30 37.20 195.07 35.57Q197.85 33.95 201.40 33.95M207.75 43.90Q207.55 41.85 205.67 40.42Q203.80 39.00 201.45 39.00Q199.10 39.00 197.40 40.42Q195.70 41.85 195.35 43.90L207.75 43.90ZM228.95 59.05Q225.75 59.05 223 57.45Q220.25 55.85 218.63 53.10Q217 50.35 217 47.10Q217 43.25 218.63 40.32Q220.25 37.40 223 35.82Q225.75 34.25 229.05 34.25Q231.40 34.25 233.07 34.80Q234.75 35.35 235.78 36.12Q236.80 36.90 238.35 38.30Q238.45 38.40 238.60 38.40Q238.80 38.40 239.07 38.25Q239.35 38.10 239.50 37.95L240.15 38.65L234.75 43.65L234.10 42.95Q234.35 42.75 234.53 42.37Q234.70 42.00 234.55 41.80Q232.75 39.60 229.60 39.60Q226.75 39.60 224.82 41.50Q222.90 43.40 222.90 46.45Q222.90 49.60 224.75 51.50Q226.60 53.40 229.60 53.40Q231.10 53.40 232.05 53.02Q233 52.65 234.20 51.60Q234.30 51.50 234.30 51.35Q234.30 51.05 233.95 50.70L234.55 49.95L239.95 54.45L239.35 55.15Q238.55 54.70 238.25 55.00Q236.40 57.05 234.38 58.05Q232.35 59.05 228.95 59.05ZM254.85 33.95Q258.70 33.95 261.50 35.62Q264.30 37.30 265.75 40.15Q267.20 43.00 267.20 46.45Q267.20 47.50 267.05 48.55L248.75 48.55Q248.95 50.95 250.85 52.30Q252.75 53.65 255.40 53.65Q257.20 53.65 258.43 53.15Q259.65 52.65 260.60 51.65Q260.70 51.45 260.70 51.40Q260.70 51.20 260.55 50.97Q260.40 50.75 260.25 50.65L260.85 49.90L266.40 54.25L265.85 55.00Q265.10 54.55 264.80 54.90Q261.30 59.10 255.40 59.10Q251.60 59.10 248.70 57.42Q245.80 55.75 244.22 52.92Q242.65 50.10 242.65 46.65Q242.65 43.00 244.20 40.10Q245.75 37.20 248.53 35.57Q251.30 33.95 254.85 33.95M261.20 43.90Q261 41.85 259.13 40.42Q257.25 39.00 254.90 39.00Q252.55 39.00 250.85 40.42Q249.15 41.85 248.80 43.90L261.20 43.90ZM280.70 58.75Q278.15 58.75 275.77 57.70Q273.40 56.65 271 54.70Q270.90 54.60 270.75 54.60Q270.35 54.60 269.90 55.05L269.20 54.45L274.20 48.75L274.90 49.40Q274.70 49.65 274.57 50.00Q274.45 50.35 274.65 50.55Q276.30 52.05 277.72 52.77Q279.15 53.50 280.70 53.50Q284.55 53.50 284.55 50.95Q284.55 49.80 283.38 49.17Q282.20 48.55 279.45 47.80Q275.90 46.85 274.30 45.32Q272.70 43.80 272.70 41.15Q272.70 38.00 274.75 36.02Q276.80 34.05 280.35 34.05Q282.15 34.05 283.60 34.60Q285.05 35.15 287.10 36.55Q287.15 36.60 287.30 36.60Q287.55 36.60 287.80 36.45Q288.05 36.30 288.15 36.15L288.90 36.80L284.40 41.90L283.70 41.30Q283.90 41.10 283.97 40.77Q284.05 40.45 283.85 40.25Q282.95 39.55 282.13 39.20Q281.30 38.85 280.30 38.85Q279.25 38.85 278.65 39.25Q278.05 39.65 278.05 40.45Q278.05 41.10 278.40 41.50Q278.75 41.90 279.68 42.30Q280.60 42.70 282.50 43.30Q286 44.35 288 46.22Q290 48.10 290 50.85Q290 54.90 287.45 56.82Q284.90 58.75 280.70 58.75ZM321.35 43.70Q321.60 43.70 321.75 43.40Q321.90 43.10 321.90 42.80L322.85 42.80L322.85 49.65L321.90 49.65Q321.90 49.35 321.75 49.05Q321.60 48.75 321.35 48.75L308.25 48.75Q308 48.75 307.85 49.05Q307.70 49.35 307.70 49.65L306.75 49.65L306.75 42.80L307.70 42.80Q307.70 43.10 307.85 43.40Q308 43.70 308.25 43.70L321.35 43.70ZM361.55 36.60Q363.20 37.10 364.88 38.52Q366.55 39.95 367.68 42.15Q368.80 44.35 368.80 47.05Q368.80 49.95 367.40 52.45Q366 54.95 363.25 56.47Q360.50 58.00 356.70 58.00L340.85 58.00L340.85 57.05Q341.20 57.05 341.58 56.90Q341.95 56.75 341.95 56.50L341.95 22.00Q341.95 21.75 341.58 21.60Q341.20 21.45 340.85 21.45L340.85 20.50L352.40 20.50Q355.75 20.50 358.33 21.77Q360.90 23.05 362.33 25.32Q363.75 27.60 363.75 30.50Q363.75 34.25 361.55 36.60M348.45 26.40L348.45 35.25L351.60 35.25Q354.70 35.25 355.88 34.02Q357.05 32.80 357.05 30.60Q357.05 28.85 355.53 27.62Q354 26.40 351.60 26.40L348.45 26.40M355.25 52.10Q359.05 52.10 360.68 50.55Q362.30 49.00 362.30 46.85Q362.30 44.60 360.90 42.87Q359.50 41.15 356.10 41.15L348.45 41.15L348.45 52.10L355.25 52.10ZM400.40 35.95Q399.35 35.95 399.10 36.35L381.60 70.80Q381.55 70.85 381.55 70.95Q381.55 71.25 381.90 71.45Q382.25 71.65 382.80 71.65L382.80 72.60L373.40 72.60L373.40 71.65Q374.45 71.65 374.70 71.25L382.85 55.20L372.60 36.30Q372.40 35.95 371.30 35.95L371.30 35.00L380.55 35.00L380.55 35.95Q379.95 35.95 379.82 36.20Q379.70 36.45 379.90 36.75L386.25 48.50L392.20 36.80Q392.25 36.75 392.25 36.65Q392.25 36.35 391.90 36.15Q391.55 35.95 391 35.95L391 35.00L400.40 35.00L400.40 35.95ZM435.95 58.50Q430.60 58.50 426.10 55.97Q421.60 53.45 419.00 48.97Q416.40 44.50 416.40 39.00Q416.40 33.20 419.00 28.75Q421.60 24.30 426.00 21.87Q430.40 19.45 435.65 19.45Q440.70 19.45 444.18 21.22Q447.65 23.00 450.75 26.20Q450.85 26.30 451.05 26.30Q451.35 26.30 452.10 25.85L452.70 26.60L445.80 32.05L445.20 31.30Q445.50 31.10 445.68 30.77Q445.85 30.45 445.65 30.30Q443.55 28.25 441.28 27.17Q439.00 26.10 435.75 26.10Q432.35 26.10 429.50 27.77Q426.65 29.45 425.00 32.40Q423.35 35.35 423.35 39.00Q423.35 42.50 425.10 45.37Q426.85 48.25 429.75 49.90Q432.65 51.55 435.95 51.55Q439.05 51.55 441.25 50.47Q443.45 49.40 445.40 47.25L445.50 47.05Q445.50 46.80 445.28 46.47Q445.05 46.15 444.80 46.00L445.45 45.30L452.90 51.55L452.30 52.30Q452.00 52.05 451.55 51.85Q451.10 51.65 450.95 51.85Q447.80 55.25 444.35 56.87Q440.90 58.50 435.95 58.50ZM470.05 34.40Q473.60 34.40 476.50 35.92Q479.40 37.45 481.08 40.20Q482.75 42.95 482.75 46.55Q482.75 50.20 481.10 52.92Q479.45 55.65 476.58 57.15Q473.70 58.65 470.05 58.65Q465.85 58.65 462.75 56.15L462.75 58.00L455.45 58.00L455.45 57.05Q455.80 57.05 456.18 56.90Q456.55 56.75 456.55 56.50L456.55 22.00Q456.55 21.75 456.18 21.60Q455.80 21.45 455.45 21.45L455.45 20.50L463.85 20.50L463.85 21.45Q463.50 21.45 463.13 21.60Q462.75 21.75 462.75 22.00L462.75 36.75Q465.75 34.40 470.05 34.40M469.65 53.35Q472.65 53.35 474.68 51.50Q476.70 49.65 476.70 46.55Q476.70 43.65 474.70 41.72Q472.70 39.80 469.65 39.80Q466.55 39.80 464.55 41.75Q462.55 43.70 462.55 46.70Q462.55 48.45 463.48 49.97Q464.40 51.50 466.05 52.42Q467.70 53.35 469.65 53.35ZM509.30 56.50Q509.30 56.75 509.68 56.90Q510.05 57.05 510.40 57.05L510.40 58.00L504.20 58.00L504.20 56.15Q501.55 58.45 498.05 58.45Q492.80 58.45 490.35 55.42Q487.90 52.40 487.90 47.85L487.90 36.50Q487.90 36.25 487.53 36.10Q487.15 35.95 486.80 35.95L486.80 35.00L495.30 35.00L495.30 35.95Q494.95 35.95 494.58 36.10Q494.20 36.25 494.20 36.50L494.20 47.45Q494.20 49.60 495.30 51.07Q496.40 52.55 498.70 52.55Q500.90 52.55 502.00 51.20Q503.10 49.85 503.10 47.75L503.10 36.50Q503.10 36.25 502.73 36.10Q502.35 35.95 502.00 35.95L502.00 35.00L510.40 35.00L510.40 35.95Q510.05 35.95 509.68 36.10Q509.30 36.25 509.30 36.50L509.30 56.50ZM530.40 33.50L530.40 41.55L529.45 41.55Q529.45 41.20 529.30 40.75Q529.15 40.30 528.90 40.25L528.55 40.25Q527 40.25 525.43 41.12Q523.85 42.00 522.83 43.42Q521.80 44.85 521.80 46.45L521.80 56.50Q521.80 56.75 522.18 56.90Q522.55 57.05 522.90 57.05L522.90 58.00L514.50 58.00L514.50 57.05Q514.85 57.05 515.23 56.90Q515.60 56.75 515.60 56.50L515.60 36.50Q515.60 36.25 515.23 36.10Q514.85 35.95 514.50 35.95L514.50 35.00L521.80 35.00L521.80 37.15Q523.15 35.90 525.05 35.15Q526.95 34.40 528.85 34.40L528.90 34.40L528.95 34.40Q529.20 34.40 529.33 34.10Q529.45 33.80 529.45 33.50L530.40 33.50ZM558.25 56.50Q558.25 56.75 558.63 56.90Q559.00 57.05 559.40 57.05L559.40 58.00L550.60 58.00L550.60 57.05Q551.00 57.05 551.38 56.90Q551.75 56.75 551.75 56.50L551.75 46.10Q551.75 43.55 550.50 41.72Q549.25 39.90 546.75 39.90Q544.20 39.90 542.63 41.60Q541.05 43.30 541.05 46.50L541.05 56.50Q541.05 56.75 541.43 56.90Q541.80 57.05 542.20 57.05L542.20 58.00L533.45 58.00L533.45 57.05Q533.85 57.05 534.23 56.90Q534.60 56.75 534.60 56.50L534.60 36.50Q534.60 36.25 534.23 36.10Q533.85 35.95 533.50 35.95L533.50 35.00L541.05 35.00L541.05 37.05Q542.35 35.85 544.13 35.17Q545.90 34.50 547.75 34.50Q550.95 34.50 553.33 35.85Q555.70 37.20 556.98 39.47Q558.25 41.75 558.25 44.55L558.25 56.50ZM575.65 33.95Q579.50 33.95 582.30 35.62Q585.10 37.30 586.55 40.15Q588 43.00 588 46.45Q588 47.50 587.85 48.55L569.55 48.55Q569.75 50.95 571.65 52.30Q573.55 53.65 576.20 53.65Q578 53.65 579.23 53.15Q580.45 52.65 581.40 51.65Q581.50 51.45 581.50 51.40Q581.50 51.20 581.35 50.97Q581.20 50.75 581.05 50.65L581.65 49.90L587.20 54.25L586.65 55.00Q585.90 54.55 585.60 54.90Q582.10 59.10 576.20 59.10Q572.40 59.10 569.50 57.42Q566.60 55.75 565.03 52.92Q563.45 50.10 563.45 46.65Q563.45 43.00 565 40.10Q566.55 37.20 569.33 35.57Q572.10 33.95 575.65 33.95M582 43.90Q581.80 41.85 579.93 40.42Q578.05 39.00 575.70 39.00Q573.35 39.00 571.65 40.42Q569.95 41.85 569.60 43.90L582 43.90ZM605.20 34.00L605.20 41.60L604.25 41.60Q604.25 41.25 604.10 40.92Q603.95 40.60 603.70 40.60L600.45 40.60L600.45 56.50Q600.45 56.75 600.80 56.90Q601.15 57.05 601.50 57.05L601.50 58.00L593.35 58.00L593.35 57.05Q593.70 57.05 594.05 56.90Q594.40 56.75 594.40 56.50L594.40 40.60L592 40.60Q591.75 40.60 591.60 40.92Q591.45 41.25 591.45 41.60L590.50 41.60L590.50 34.00L591.45 34.00Q591.45 34.35 591.60 34.67Q591.75 35.00 592 35.00L594.40 35.00L594.40 29.15Q594.40 28.90 594.05 28.75Q593.70 28.60 593.35 28.60L593.35 27.65L601.50 27.65L601.50 28.60Q601.15 28.60 600.80 28.75Q600.45 28.90 600.45 29.15L600.45 35.00L603.70 35.00Q603.95 35.00 604.10 34.67Q604.25 34.35 604.25 34.00L605.20 34.00ZM621.90 34.00L621.90 41.60L620.95 41.60Q620.95 41.25 620.80 40.92Q620.65 40.60 620.40 40.60L617.15 40.60L617.15 56.50Q617.15 56.75 617.50 56.90Q617.85 57.05 618.20 57.05L618.20 58.00L610.05 58.00L610.05 57.05Q610.40 57.05 610.75 56.90Q611.10 56.75 611.10 56.50L611.10 40.60L608.70 40.60Q608.45 40.60 608.30 40.92Q608.15 41.25 608.15 41.60L607.20 41.60L607.20 34.00L608.15 34.00Q608.15 34.35 608.30 34.67Q608.45 35.00 608.70 35.00L611.10 35.00L611.10 29.15Q611.10 28.90 610.75 28.75Q610.40 28.60 610.05 28.60L610.05 27.65L618.20 27.65L618.20 28.60Q617.85 28.60 617.50 28.75Q617.15 28.90 617.15 29.15L617.15 35.00L620.40 35.00Q620.65 35.00 620.80 34.67Q620.95 34.35 620.95 34.00L621.90 34.00ZM625.40 54.25Q625.40 52.50 626.70 51.27Q628.00 50.05 629.85 50.05Q632.00 50.05 633.28 51.45Q634.55 52.85 634.55 55.70Q634.55 60.05 631.98 61.85Q629.40 63.65 625.65 63.65L625.65 62.35Q627.80 62.00 629.38 60.97Q630.95 59.95 630.95 58.45Q630.50 58.55 629.70 58.55Q627.85 58.55 626.63 57.32Q625.40 56.10 625.40 54.25ZM674.60 58.50Q669.25 58.50 664.75 55.97Q660.25 53.45 657.65 48.97Q655.05 44.50 655.05 39.00Q655.05 33.20 657.65 28.75Q660.25 24.30 664.65 21.87Q669.05 19.45 674.30 19.45Q679.35 19.45 682.83 21.22Q686.30 23.00 689.40 26.20Q689.50 26.30 689.70 26.30Q690.00 26.30 690.75 25.85L691.35 26.60L684.45 32.05L683.85 31.30Q684.15 31.10 684.33 30.77Q684.50 30.45 684.30 30.30Q682.20 28.25 679.93 27.17Q677.65 26.10 674.40 26.10Q671.00 26.10 668.15 27.77Q665.30 29.45 663.65 32.40Q662.00 35.35 662.00 39.00Q662.00 42.50 663.75 45.37Q665.50 48.25 668.40 49.90Q671.30 51.55 674.60 51.55Q677.70 51.55 679.90 50.47Q682.10 49.40 684.05 47.25L684.15 47.05Q684.15 46.80 683.93 46.47Q683.70 46.15 683.45 46.00L684.10 45.30L691.55 51.55L690.95 52.30Q690.65 52.05 690.20 51.85Q689.75 51.65 689.60 51.85Q686.45 55.25 683.00 56.87Q679.55 58.50 674.60 58.50ZM712.85 58.50Q707.50 58.50 703.00 55.97Q698.50 53.45 695.90 48.97Q693.30 44.50 693.30 39.00Q693.30 33.20 695.90 28.75Q698.50 24.30 702.90 21.87Q707.30 19.45 712.55 19.45Q717.60 19.45 721.08 21.22Q724.55 23.00 727.65 26.20Q727.75 26.30 727.95 26.30Q728.25 26.30 729.00 25.85L729.60 26.60L722.70 32.05L722.10 31.30Q722.40 31.10 722.58 30.77Q722.75 30.45 722.55 30.30Q720.45 28.25 718.18 27.17Q715.90 26.10 712.65 26.10Q709.25 26.10 706.40 27.77Q703.55 29.45 701.90 32.40Q700.25 35.35 700.25 39.00Q700.25 42.50 702.00 45.37Q703.75 48.25 706.65 49.90Q709.55 51.55 712.85 51.55Q715.95 51.55 718.15 50.47Q720.35 49.40 722.30 47.25L722.40 47.05Q722.40 46.80 722.18 46.47Q721.95 46.15 721.70 46.00L722.35 45.30L729.80 51.55L729.20 52.30Q728.90 52.05 728.45 51.85Q728.00 51.65 727.85 51.85Q724.70 55.25 721.25 56.87Q717.80 58.50 712.85 58.50ZM767.25 36.60Q768.90 37.10 770.58 38.52Q772.25 39.95 773.38 42.15Q774.50 44.35 774.50 47.05Q774.50 49.95 773.10 52.45Q771.70 54.95 768.95 56.47Q766.20 58.00 762.40 58.00L746.55 58.00L746.55 57.05Q746.90 57.05 747.28 56.90Q747.65 56.75 747.65 56.50L747.65 22.00Q747.65 21.75 747.28 21.60Q746.90 21.45 746.55 21.45L746.55 20.50L758.10 20.50Q761.45 20.50 764.03 21.77Q766.60 23.05 768.03 25.32Q769.45 27.60 769.45 30.50Q769.45 34.25 767.25 36.60M754.15 26.40L754.15 35.25L757.30 35.25Q760.40 35.25 761.58 34.02Q762.75 32.80 762.75 30.60Q762.75 28.85 761.23 27.62Q759.70 26.40 757.30 26.40L754.15 26.40M760.95 52.10Q764.75 52.10 766.38 50.55Q768.00 49.00 768.00 46.85Q768.00 44.60 766.60 42.87Q765.20 41.15 761.80 41.15L754.15 41.15L754.15 52.10L760.95 52.10ZM814.30 21.45L814.00 21.45Q813.05 21.45 812.85 21.75L799.40 41.05L799.40 56.50Q799.40 56.75 799.83 56.90Q800.25 57.05 800.65 57.05L800.65 58.00L790.85 58.00L790.85 57.05Q791.25 57.05 791.68 56.90Q792.10 56.75 792.10 56.50L792.10 41.35L778.45 21.75Q778.30 21.55 777.83 21.50Q777.35 21.45 777.00 21.45L777.00 20.50L787.30 20.50L787.30 21.45Q786.70 21.45 786.70 21.70Q786.70 21.90 786.85 22.15L795.55 34.40L804.15 22.15L804.25 21.95Q804.25 21.70 803.98 21.57Q803.70 21.45 803.20 21.45L803.20 20.50L814.30 20.50L814.30 21.45ZM830.90 43.70Q831.15 43.70 831.30 43.40Q831.45 43.10 831.45 42.80L832.40 42.80L832.40 49.65L831.45 49.65Q831.45 49.35 831.30 49.05Q831.15 48.75 830.90 48.75L817.80 48.75Q817.55 48.75 817.40 49.05Q817.25 49.35 817.25 49.65L816.30 49.65L816.30 42.80L817.25 42.80Q817.25 43.10 817.40 43.40Q817.55 43.70 817.80 43.70L830.90 43.70ZM851.65 58.95Q847.35 58.95 843.65 56.92Q839.95 54.90 836.50 51.35Q836.40 51.25 836.25 51.25Q835.80 51.25 835.25 51.80L834.60 51.10L841.55 44.55L842.20 45.25Q841.90 45.50 841.65 45.95Q841.40 46.40 841.55 46.60Q846.20 52.50 851.70 52.50Q853.60 52.50 855.13 51.75Q856.65 51.00 857.50 49.82Q858.35 48.65 858.35 47.40Q858.35 44.45 853.20 42.55L847.05 40.25Q843.35 38.90 841.28 36.55Q839.20 34.20 839.20 30.90Q839.20 27.65 840.73 25.22Q842.25 22.80 845.05 21.50Q847.85 20.20 851.55 20.20Q855.05 20.20 857.43 21.27Q859.80 22.35 862.50 24.55Q862.55 24.60 862.70 24.60Q862.95 24.60 863.28 24.42Q863.60 24.25 863.80 24.05L864.45 24.70L858.25 30.80L857.60 30.10Q857.85 29.85 857.98 29.52Q858.10 29.20 857.90 29.05Q854.65 26.45 851.45 26.45Q848.90 26.45 847.40 27.62Q845.90 28.80 845.90 30.60Q845.90 32.20 846.73 33.05Q847.55 33.90 849.25 34.50L855.30 36.70Q858.45 37.85 860.55 39.12Q862.65 40.40 863.90 42.47Q865.15 44.55 865.15 47.65Q865.15 50.65 863.58 53.22Q862.00 55.80 858.93 57.37Q855.85 58.95 851.65 58.95ZM906.20 56.60Q906.35 57.05 907.40 57.05L907.40 58.00L897.25 58.00L897.25 57.05Q897.90 57.05 898.15 56.75Q898.40 56.45 898.25 56.15L895.50 49.10L879.20 49.10L876.45 56.15L876.40 56.30Q876.40 56.60 876.68 56.82Q876.95 57.05 877.40 57.05L877.40 58.00L867.55 58.00L867.55 57.05Q868.55 57.05 868.75 56.60L882.65 22.80Q882.80 22.50 882.80 22.25Q882.80 21.80 882.40 21.62Q882.00 21.45 881.55 21.45L881.55 20.50L893.20 20.50L893.20 21.45Q892.75 21.45 892.35 21.62Q891.95 21.80 891.95 22.25Q891.95 22.50 892.10 22.80L906.20 56.60M887.35 28.30L881.45 43.35L893.25 43.35L887.35 28.30ZM952.40 20.50L952.40 25.65L942.25 34.40Q945.00 34.90 947.15 36.60Q949.30 38.30 950.50 40.82Q951.70 43.35 951.70 46.35Q951.70 49.60 950.15 52.47Q948.60 55.35 945.50 57.10Q942.40 58.85 938.00 58.85Q933.70 58.85 930.10 56.45Q926.50 54.05 924.45 49.30Q924.40 49.10 923.95 49.10Q923.45 49.10 923.15 49.25L922.80 48.40L931.35 44.60L931.75 45.50Q931.35 45.65 930.95 45.97Q930.55 46.30 930.65 46.55Q931.50 49.15 933.48 50.82Q935.45 52.50 938.00 52.50Q939.95 52.50 941.53 51.62Q943.10 50.75 943.98 49.30Q944.85 47.85 944.85 46.25Q944.85 43.55 943.03 41.77Q941.20 40.00 938.50 40.00Q937.30 40.00 936.20 40.35Q936.00 40.40 936.00 40.60Q936.00 40.85 936.30 41.15L935.60 41.80L934.60 40.65L932.15 38.05L930.45 36.20L931.15 35.55Q931.40 35.80 931.75 35.97Q932.10 36.15 932.30 36.00L943.10 26.50L928.15 26.50Q927.90 26.50 927.75 26.85Q927.60 27.20 927.60 27.55L926.65 27.55L926.65 19.45L927.60 19.45Q927.60 19.80 927.75 20.15Q927.90 20.50 928.15 20.50L952.40 20.50ZM961.20 58.55Q959.35 58.55 958.13 57.32Q956.90 56.10 956.90 54.25Q956.90 52.50 958.15 51.27Q959.40 50.05 961.20 50.05Q962.95 50.05 964.18 51.27Q965.40 52.50 965.40 54.25Q965.40 56.10 964.18 57.32Q962.95 58.55 961.20 58.55ZM986.60 59.15Q982.90 59.15 979.70 57.52Q976.50 55.90 974.58 52.75Q972.65 49.60 972.65 45.20L972.65 33.85Q972.65 30.20 974.15 26.85Q975.65 23.50 978.80 21.37Q981.95 19.25 986.55 19.25Q991.55 19.25 994.70 21.35Q997.85 23.45 999.25 26.77Q1000.65 30.10 1000.65 33.85L1000.65 45.40Q1000.65 52.05 996.83 55.60Q993.00 59.15 986.60 59.15M986.65 52.55Q989.95 52.55 991.78 50.32Q993.60 48.10 993.60 42.90L993.60 34.30Q993.60 30.35 991.80 28.15Q990.00 25.95 986.40 25.95Q983.15 25.95 981.33 28.07Q979.50 30.20 979.50 34.40L979.50 43.45Q979.50 47.90 981.40 50.22Q983.30 52.55 986.65 52.55Z"/></g><g transform="translate(0, 322)"><path d="M13 61.50L9.70 64.25L6.90 66.50L6.25 65.70Q6.65 65.40 6.85 64.95Q7.05 64.50 7.05 64.15Q7.05 63.85 6.90 63.70Q3.75 59.90 1.88 54.42Q0 48.95 0 43.10Q0 37.10 1.98 31.47Q3.95 25.85 7.25 22.10Q7.35 22.00 7.35 21.85Q7.35 21.50 6.70 20.85L7.40 20.05L13 24.70L14.85 26.20L14.25 26.90Q13.90 26.60 13.35 26.60Q12.90 26.60 12.65 26.85Q10.35 30.00 8.80 34.42Q7.25 38.85 7.25 43.10Q7.25 47.35 8.80 51.77Q10.35 56.20 12.65 59.35Q12.80 59.50 13.15 59.50Q13.90 59.50 14.55 59.05L15.15 59.75L13 61.50ZM43.25 56.50Q43.25 56.75 43.63 56.90Q44 57.05 44.40 57.05L44.40 58.00L35.60 58.00L35.60 57.05Q36 57.05 36.38 56.90Q36.75 56.75 36.75 56.50L36.75 46.10Q36.75 43.55 35.50 41.72Q34.25 39.90 31.75 39.90Q29.20 39.90 27.50 41.60Q25.80 43.30 25.80 46.50L25.80 56.50Q25.80 56.75 26.18 56.90Q26.55 57.05 26.90 57.05L26.90 58.00L18.45 58.00L18.45 57.05Q18.80 57.05 19.18 56.90Q19.55 56.75 19.55 56.50L19.55 22.00Q19.55 21.75 19.18 21.60Q18.80 21.45 18.45 21.45L18.45 20.50L26.90 20.50L26.90 21.45Q26.55 21.45 26.18 21.60Q25.80 21.75 25.80 22.00L25.80 37.25Q27.10 36.00 28.98 35.25Q30.85 34.50 32.75 34.50Q36 34.50 38.38 35.85Q40.75 37.20 42 39.47Q43.25 41.75 43.25 44.55L43.25 56.50ZM62.40 34.00L62.40 41.60L61.45 41.60Q61.45 41.25 61.30 40.92Q61.15 40.60 60.90 40.60L57.65 40.60L57.65 56.50Q57.65 56.75 58 56.90Q58.35 57.05 58.70 57.05L58.70 58.00L50.55 58.00L50.55 57.05Q50.90 57.05 51.25 56.90Q51.60 56.75 51.60 56.50L51.60 40.60L49.20 40.60Q48.95 40.60 48.80 40.92Q48.65 41.25 48.65 41.60L47.70 41.60L47.70 34.00L48.65 34.00Q48.65 34.35 48.80 34.67Q48.95 35.00 49.20 35.00L51.60 35.00L51.60 29.15Q51.60 28.90 51.25 28.75Q50.90 28.60 50.55 28.60L50.55 27.65L58.70 27.65L58.70 28.60Q58.35 28.60 58 28.75Q57.65 28.90 57.65 29.15L57.65 35.00L60.90 35.00Q61.15 35.00 61.30 34.67Q61.45 34.35 61.45 34.00L62.40 34.00ZM79.10 34.00L79.10 41.60L78.15 41.60Q78.15 41.25 78 40.92Q77.85 40.60 77.60 40.60L74.35 40.60L74.35 56.50Q74.35 56.75 74.70 56.90Q75.05 57.05 75.40 57.05L75.40 58.00L67.25 58.00L67.25 57.05Q67.60 57.05 67.95 56.90Q68.30 56.75 68.30 56.50L68.30 40.60L65.90 40.60Q65.65 40.60 65.50 40.92Q65.35 41.25 65.35 41.60L64.40 41.60L64.40 34.00L65.35 34.00Q65.35 34.35 65.50 34.67Q65.65 35.00 65.90 35.00L68.30 35.00L68.30 29.15Q68.30 28.90 67.95 28.75Q67.60 28.60 67.25 28.60L67.25 27.65L75.40 27.65L75.40 28.60Q75.05 28.60 74.70 28.75Q74.35 28.90 74.35 29.15L74.35 35.00L77.60 35.00Q77.85 35.00 78 34.67Q78.15 34.35 78.15 34.00L79.10 34.00ZM97.55 34.40Q101.10 34.40 103.90 35.92Q106.70 37.45 108.28 40.22Q109.85 43.00 109.85 46.60Q109.85 50.25 108.28 53.00Q106.70 55.75 103.88 57.25Q101.05 58.75 97.40 58.75Q93.25 58.75 89.95 55.95L89.95 71.05Q89.95 71.30 90.33 71.45Q90.70 71.60 91.05 71.60L91.05 72.55L82.60 72.55L82.60 71.60Q82.95 71.60 83.33 71.45Q83.70 71.30 83.70 71.05L83.70 36.50Q83.70 36.25 83.33 36.10Q82.95 35.95 82.60 35.95L82.60 35.00L89.95 35.00L89.95 37.10Q93.35 34.40 97.55 34.40M96.90 53.40Q99.85 53.40 101.85 51.60Q103.85 49.80 103.85 46.70Q103.85 43.70 101.90 41.77Q99.95 39.85 96.90 39.85Q93.75 39.85 91.78 41.77Q89.80 43.70 89.80 46.75Q89.80 48.45 90.73 50.00Q91.65 51.55 93.28 52.47Q94.90 53.40 96.90 53.40ZM123.60 58.75Q121.05 58.75 118.68 57.70Q116.30 56.65 113.90 54.70Q113.80 54.60 113.65 54.60Q113.25 54.60 112.80 55.05L112.10 54.45L117.10 48.75L117.80 49.40Q117.60 49.65 117.48 50.00Q117.35 50.35 117.55 50.55Q119.20 52.05 120.63 52.77Q122.05 53.50 123.60 53.50Q127.45 53.50 127.45 50.95Q127.45 49.80 126.28 49.17Q125.10 48.55 122.35 47.80Q118.80 46.85 117.20 45.32Q115.60 43.80 115.60 41.15Q115.60 38.00 117.65 36.02Q119.70 34.05 123.25 34.05Q125.05 34.05 126.50 34.60Q127.95 35.15 130 36.55Q130.05 36.60 130.20 36.60Q130.45 36.60 130.70 36.45Q130.95 36.30 131.05 36.15L131.80 36.80L127.30 41.90L126.60 41.30Q126.80 41.10 126.88 40.77Q126.95 40.45 126.75 40.25Q125.85 39.55 125.03 39.20Q124.20 38.85 123.20 38.85Q122.15 38.85 121.55 39.25Q120.95 39.65 120.95 40.45Q120.95 41.10 121.30 41.50Q121.65 41.90 122.58 42.30Q123.50 42.70 125.40 43.30Q128.90 44.35 130.90 46.22Q132.90 48.10 132.90 50.85Q132.90 54.90 130.35 56.82Q127.80 58.75 123.60 58.75ZM141.95 42.30Q140.10 42.30 138.88 41.07Q137.65 39.85 137.65 38.00Q137.65 36.25 138.90 35.02Q140.15 33.80 141.95 33.80Q143.70 33.80 144.93 35.02Q146.15 36.25 146.15 38.00Q146.15 39.85 144.93 41.07Q143.70 42.30 141.95 42.30M141.95 58.55Q140.10 58.55 138.88 57.32Q137.65 56.10 137.65 54.25Q137.65 52.50 138.90 51.27Q140.15 50.05 141.95 50.05Q143.70 50.05 144.93 51.27Q146.15 52.50 146.15 54.25Q146.15 56.10 144.93 57.32Q143.70 58.55 141.95 58.55ZM149.90 60.95L168.40 17.75L174.50 17.75L156 60.95L149.90 60.95ZM175 60.95L193.50 17.75L199.60 17.75L181.10 60.95L175 60.95ZM213.80 33.95Q217.65 33.95 220.45 35.62Q223.25 37.30 224.70 40.15Q226.15 43.00 226.15 46.45Q226.15 47.50 226 48.55L207.70 48.55Q207.90 50.95 209.80 52.30Q211.70 53.65 214.35 53.65Q216.15 53.65 217.38 53.15Q218.60 52.65 219.55 51.65Q219.65 51.45 219.65 51.40Q219.65 51.20 219.50 50.97Q219.35 50.75 219.20 50.65L219.80 49.90L225.35 54.25L224.80 55.00Q224.05 54.55 223.75 54.90Q220.25 59.10 214.35 59.10Q210.55 59.10 207.65 57.42Q204.75 55.75 203.17 52.92Q201.60 50.10 201.60 46.65Q201.60 43.00 203.15 40.10Q204.70 37.20 207.47 35.57Q210.25 33.95 213.80 33.95M220.15 43.90Q219.95 41.85 218.07 40.42Q216.20 39.00 213.85 39.00Q211.50 39.00 209.80 40.42Q208.10 41.85 207.75 43.90L220.15 43.90ZM254.75 56.50Q254.75 56.75 255.13 56.90Q255.50 57.05 255.90 57.05L255.90 58.00L247.10 58.00L247.10 57.05Q247.50 57.05 247.88 56.90Q248.25 56.75 248.25 56.50L248.25 46.10Q248.25 43.55 247 41.72Q245.75 39.90 243.25 39.90Q240.70 39.90 239.13 41.60Q237.55 43.30 237.55 46.50L237.55 56.50Q237.55 56.75 237.93 56.90Q238.30 57.05 238.70 57.05L238.70 58.00L229.95 58.00L229.95 57.05Q230.35 57.05 230.72 56.90Q231.10 56.75 231.10 56.50L231.10 36.50Q231.10 36.25 230.72 36.10Q230.35 35.95 230 35.95L230 35.00L237.55 35.00L237.55 37.05Q238.85 35.85 240.63 35.17Q242.40 34.50 244.25 34.50Q247.45 34.50 249.83 35.85Q252.20 37.20 253.48 39.47Q254.75 41.75 254.75 44.55L254.75 56.50ZM265 58.55Q263.15 58.55 261.93 57.32Q260.70 56.10 260.70 54.25Q260.70 52.50 261.95 51.27Q263.20 50.05 265 50.05Q266.75 50.05 267.97 51.27Q269.20 52.50 269.20 54.25Q269.20 56.10 267.97 57.32Q266.75 58.55 265 58.55ZM290.75 55.60L290.65 56.05Q290.65 56.60 291.07 56.82Q291.50 57.05 291.95 57.05L291.95 58.00L281.65 58.00L281.65 57.05Q282.05 57.05 282.45 56.85Q282.85 56.65 282.85 56.15Q282.85 56.05 282.75 55.65L275.80 36.40Q275.70 36.15 275.38 36.05Q275.05 35.95 274.70 35.95L274.70 35.00L283.15 35.00L283.15 35.95Q282.55 35.95 282.32 36.25Q282.10 36.55 282.20 36.90L287.25 51.05L291.50 37.40Q291.55 37.25 291.55 36.95Q291.55 36.40 291.20 36.17Q290.85 35.95 290.50 35.95L290.50 35.00L299 35.00L299 35.95Q298.65 35.95 298.27 36.17Q297.90 36.40 297.90 37.00Q297.90 37.25 297.95 37.40L301.75 51.15L306.95 36.90Q307.05 36.60 306.60 36.27Q306.15 35.95 305.55 35.95L305.55 35.00L313.70 35.00L313.70 35.95Q313.35 35.95 313.02 36.05Q312.70 36.15 312.60 36.40L305.75 55.65Q305.65 55.85 305.65 56.15Q305.65 56.65 306.05 56.85Q306.45 57.05 306.85 57.05L306.85 58.00L296.30 58.00L296.30 57.05Q296.75 57.05 297.22 56.82Q297.70 56.60 297.70 56.00Q297.70 55.75 297.65 55.60L294.50 43.45L290.75 55.60ZM321.55 30.80Q319.95 30.80 318.82 29.70Q317.70 28.60 317.70 26.95Q317.70 25.40 318.82 24.27Q319.95 23.15 321.55 23.15Q323.15 23.15 324.25 24.27Q325.35 25.40 325.35 26.95Q325.35 28.60 324.25 29.70Q323.15 30.80 321.55 30.80M318.30 36.50Q318.30 36.25 317.93 36.10Q317.55 35.95 317.20 35.95L317.20 35.00L325.80 35.00L325.80 35.95Q325.45 35.95 325.07 36.10Q324.70 36.25 324.70 36.50L324.70 56.50Q324.70 56.75 325.07 56.90Q325.45 57.05 325.80 57.05L325.80 58.00L317.20 58.00L317.20 57.05Q317.55 57.05 317.93 56.90Q318.30 56.75 318.30 56.50L318.30 36.50ZM353.55 56.80Q353.75 57.05 354.75 57.05L354.75 58.00L345.60 58.00L345.60 57.05Q346.20 57.05 346.20 56.80Q346.20 56.70 346 56.40L341.25 49.85L338.55 53.00L338.55 56.50Q338.55 56.75 338.93 56.90Q339.30 57.05 339.65 57.05L339.65 58.00L331.10 58.00L331.10 57.05Q331.45 57.05 331.82 56.90Q332.20 56.75 332.20 56.50L332.20 22.00Q332.20 21.75 331.82 21.60Q331.45 21.45 331.10 21.45L331.10 20.50L339.65 20.50L339.65 21.45Q339.30 21.45 338.93 21.60Q338.55 21.75 338.55 22.00L338.55 44.10L345.15 36.50L345.25 36.30Q345.25 35.95 344.35 35.95L344.35 35.00L354.35 35.00L354.35 35.95L353.90 35.95Q353.25 35.95 353.05 36.15L345 45.50L353.55 56.80ZM363.30 30.80Q361.70 30.80 360.57 29.70Q359.45 28.60 359.45 26.95Q359.45 25.40 360.57 24.27Q361.70 23.15 363.30 23.15Q364.90 23.15 366 24.27Q367.10 25.40 367.10 26.95Q367.10 28.60 366 29.70Q364.90 30.80 363.30 30.80M360.05 36.50Q360.05 36.25 359.68 36.10Q359.30 35.95 358.95 35.95L358.95 35.00L367.55 35.00L367.55 35.95Q367.20 35.95 366.82 36.10Q366.45 36.25 366.45 36.50L366.45 56.50Q366.45 56.75 366.82 56.90Q367.20 57.05 367.55 57.05L367.55 58.00L358.95 58.00L358.95 57.05Q359.30 57.05 359.68 56.90Q360.05 56.75 360.05 56.50L360.05 36.50ZM388 34.40Q391.55 34.40 394.35 35.92Q397.15 37.45 398.73 40.22Q400.30 43.00 400.30 46.60Q400.30 50.25 398.73 53.00Q397.15 55.75 394.32 57.25Q391.50 58.75 387.85 58.75Q383.70 58.75 380.40 55.95L380.40 71.05Q380.40 71.30 380.78 71.45Q381.15 71.60 381.50 71.60L381.50 72.55L373.05 72.55L373.05 71.60Q373.40 71.60 373.78 71.45Q374.15 71.30 374.15 71.05L374.15 36.50Q374.15 36.25 373.78 36.10Q373.40 35.95 373.05 35.95L373.05 35.00L380.40 35.00L380.40 37.10Q383.80 34.40 388 34.40M387.35 53.40Q390.30 53.40 392.30 51.60Q394.30 49.80 394.30 46.70Q394.30 43.70 392.35 41.77Q390.40 39.85 387.35 39.85Q384.20 39.85 382.23 41.77Q380.25 43.70 380.25 46.75Q380.25 48.45 381.18 50.00Q382.10 51.55 383.73 52.47Q385.35 53.40 387.35 53.40ZM416 33.95Q419.85 33.95 422.65 35.62Q425.45 37.30 426.90 40.15Q428.35 43.00 428.35 46.45Q428.35 47.50 428.20 48.55L409.90 48.55Q410.10 50.95 412 52.30Q413.90 53.65 416.55 53.65Q418.35 53.65 419.57 53.15Q420.80 52.65 421.75 51.65Q421.85 51.45 421.85 51.40Q421.85 51.20 421.70 50.97Q421.55 50.75 421.40 50.65L422 49.90L427.55 54.25L427 55.00Q426.25 54.55 425.95 54.90Q422.45 59.10 416.55 59.10Q412.75 59.10 409.85 57.42Q406.95 55.75 405.38 52.92Q403.80 50.10 403.80 46.65Q403.80 43.00 405.35 40.10Q406.90 37.20 409.68 35.57Q412.45 33.95 416 33.95M422.35 43.90Q422.15 41.85 420.28 40.42Q418.40 39.00 416.05 39.00Q413.70 39.00 412 40.42Q410.30 41.85 409.95 43.90L422.35 43.90ZM457.60 56.50Q457.60 56.75 457.98 56.90Q458.35 57.05 458.70 57.05L458.70 58.00L451.55 58.00L451.55 56.25Q448.55 58.70 444.40 58.70Q440.70 58.70 437.80 57.20Q434.90 55.70 433.25 52.95Q431.60 50.20 431.60 46.60Q431.60 42.95 433.28 40.12Q434.95 37.30 437.88 35.72Q440.80 34.15 444.40 34.15Q448.55 34.15 451.55 36.50L451.55 22.00Q451.55 21.75 451.20 21.60Q450.85 21.45 450.50 21.45L450.50 20.50L458.65 20.50L458.65 21.45Q458.30 21.45 457.95 21.60Q457.60 21.75 457.60 22.00L457.60 56.50M444.70 53.35Q446.65 53.35 448.28 52.45Q449.90 51.55 450.83 50.02Q451.75 48.50 451.75 46.80Q451.75 43.75 449.78 41.77Q447.80 39.80 444.70 39.80Q441.60 39.80 439.63 41.72Q437.65 43.65 437.65 46.70Q437.65 49.75 439.68 51.55Q441.70 53.35 444.70 53.35ZM468.55 30.80Q466.95 30.80 465.83 29.70Q464.70 28.60 464.70 26.95Q464.70 25.40 465.83 24.27Q466.95 23.15 468.55 23.15Q470.15 23.15 471.25 24.27Q472.35 25.40 472.35 26.95Q472.35 28.60 471.25 29.70Q470.15 30.80 468.55 30.80M465.30 36.50Q465.30 36.25 464.93 36.10Q464.55 35.95 464.20 35.95L464.20 35.00L472.80 35.00L472.80 35.95Q472.45 35.95 472.08 36.10Q471.70 36.25 471.70 36.50L471.70 56.50Q471.70 56.75 472.08 56.90Q472.45 57.05 472.80 57.05L472.80 58.00L464.20 58.00L464.20 57.05Q464.55 57.05 464.93 56.90Q465.30 56.75 465.30 56.50L465.30 36.50ZM505.15 35.95Q504.80 35.95 504.43 36.10Q504.05 36.25 504.05 36.50L504.05 56.50Q504.05 56.75 504.43 56.90Q504.80 57.05 505.15 57.05L505.15 58.00L497.75 58.00L497.75 55.25Q494.60 58.65 489.80 58.65Q486.15 58.65 483.38 57.17Q480.60 55.70 479.08 52.95Q477.55 50.20 477.55 46.55Q477.55 43.00 479.23 40.22Q480.90 37.45 483.70 35.92Q486.50 34.40 489.80 34.40Q494.60 34.40 497.75 38.10L497.75 35.00L505.15 35.00L505.15 35.95M490.55 53.35Q492.60 53.35 494.23 52.42Q495.85 51.50 496.75 49.97Q497.65 48.45 497.65 46.70Q497.65 43.70 495.68 41.75Q493.70 39.80 490.55 39.80Q487.50 39.80 485.53 41.70Q483.55 43.60 483.55 46.55Q483.55 49.65 485.58 51.50Q487.60 53.35 490.55 53.35ZM514.25 58.55Q512.40 58.55 511.18 57.32Q509.95 56.10 509.95 54.25Q509.95 52.50 511.20 51.27Q512.45 50.05 514.25 50.05Q516 50.05 517.23 51.27Q518.45 52.50 518.45 54.25Q518.45 56.10 517.23 57.32Q516 58.55 514.25 58.55ZM537.70 58.60Q534 58.60 531.18 57.02Q528.35 55.45 526.78 52.70Q525.20 49.95 525.20 46.50Q525.20 43.10 526.78 40.30Q528.35 37.50 531.20 35.87Q534.05 34.25 537.70 34.25Q541.20 34.25 544.05 35.82Q546.90 37.40 548.55 40.17Q550.20 42.95 550.20 46.50Q550.20 49.60 548.73 52.37Q547.25 55.15 544.40 56.87Q541.55 58.60 537.70 58.60M537.70 52.85Q540.65 52.85 542.48 51.12Q544.30 49.40 544.30 46.65Q544.30 43.80 542.48 41.95Q540.65 40.10 537.70 40.10Q534.95 40.10 533.10 41.92Q531.25 43.75 531.25 46.50Q531.25 49.40 533.10 51.12Q534.95 52.85 537.70 52.85ZM569.65 33.50L569.65 41.55L568.70 41.55Q568.70 41.20 568.55 40.75Q568.40 40.30 568.15 40.25L567.80 40.25Q566.25 40.25 564.68 41.12Q563.10 42.00 562.08 43.42Q561.05 44.85 561.05 46.45L561.05 56.50Q561.05 56.75 561.43 56.90Q561.80 57.05 562.15 57.05L562.15 58.00L553.75 58.00L553.75 57.05Q554.10 57.05 554.48 56.90Q554.85 56.75 554.85 56.50L554.85 36.50Q554.85 36.25 554.48 36.10Q554.10 35.95 553.75 35.95L553.75 35.00L561.05 35.00L561.05 37.15Q562.40 35.90 564.30 35.15Q566.20 34.40 568.10 34.40L568.15 34.40L568.20 34.40Q568.45 34.40 568.58 34.10Q568.70 33.80 568.70 33.50L569.65 33.50ZM599.45 35.00L599.45 35.95Q599.10 35.95 598.73 36.10Q598.35 36.25 598.35 36.50L598.40 59.85Q598.40 66.10 594.80 69.52Q591.20 72.95 585.00 72.95Q582.45 72.95 579.60 71.52Q576.75 70.10 574.35 67.30Q574.30 67.15 574.05 67.15Q573.65 67.15 573.20 67.50L572.65 66.75L578.90 61.80L579.50 62.55Q579.25 62.75 579.03 63.10Q578.80 63.45 578.95 63.70Q580.20 65.45 581.65 66.30Q583.10 67.15 585.15 67.15Q588.40 67.15 590.25 65.57Q592.10 64.00 592.10 60.80L592.10 56.25Q588.95 58.70 584.85 58.70Q581.15 58.70 578.28 57.17Q575.40 55.65 573.78 52.87Q572.15 50.10 572.15 46.50Q572.15 42.90 573.85 40.17Q575.55 37.45 578.45 35.97Q581.35 34.50 584.85 34.50Q589.05 34.50 592.10 36.80L592.10 35.00L599.45 35.00M585.15 53.35Q588.55 53.35 590.40 51.52Q592.25 49.70 592.25 46.70Q592.25 43.70 590.25 41.75Q588.25 39.80 585.15 39.80Q582.15 39.80 580.18 41.70Q578.20 43.60 578.20 46.60Q578.20 49.70 580.20 51.52Q582.20 53.35 585.15 53.35ZM602.20 60.95L620.70 17.75L626.80 17.75L608.30 60.95L602.20 60.95ZM643.60 55.60L643.50 56.05Q643.50 56.60 643.93 56.82Q644.35 57.05 644.80 57.05L644.80 58.00L634.50 58.00L634.50 57.05Q634.90 57.05 635.30 56.85Q635.70 56.65 635.70 56.15Q635.70 56.05 635.60 55.65L628.65 36.40Q628.55 36.15 628.23 36.05Q627.90 35.95 627.55 35.95L627.55 35.00L636.00 35.00L636.00 35.95Q635.40 35.95 635.18 36.25Q634.95 36.55 635.05 36.90L640.10 51.05L644.35 37.40Q644.40 37.25 644.40 36.95Q644.40 36.40 644.05 36.17Q643.70 35.95 643.35 35.95L643.35 35.00L651.85 35.00L651.85 35.95Q651.50 35.95 651.13 36.17Q650.75 36.40 650.75 37.00Q650.75 37.25 650.80 37.40L654.60 51.15L659.80 36.90Q659.90 36.60 659.45 36.27Q659.00 35.95 658.40 35.95L658.40 35.00L666.55 35.00L666.55 35.95Q666.20 35.95 665.88 36.05Q665.55 36.15 665.45 36.40L658.60 55.65Q658.50 55.85 658.50 56.15Q658.50 56.65 658.90 56.85Q659.30 57.05 659.70 57.05L659.70 58.00L649.15 58.00L649.15 57.05Q649.60 57.05 650.08 56.82Q650.55 56.60 650.55 56.00Q650.55 55.75 650.50 55.60L647.35 43.45L643.60 55.60ZM674.40 30.80Q672.80 30.80 671.68 29.70Q670.55 28.60 670.55 26.95Q670.55 25.40 671.68 24.27Q672.80 23.15 674.40 23.15Q676.00 23.15 677.10 24.27Q678.20 25.40 678.20 26.95Q678.20 28.60 677.10 29.70Q676.00 30.80 674.40 30.80M671.15 36.50Q671.15 36.25 670.78 36.10Q670.40 35.95 670.05 35.95L670.05 35.00L678.65 35.00L678.65 35.95Q678.30 35.95 677.93 36.10Q677.55 36.25 677.55 36.50L677.55 56.50Q677.55 56.75 677.93 56.90Q678.30 57.05 678.65 57.05L678.65 58.00L670.05 58.00L670.05 57.05Q670.40 57.05 670.78 56.90Q671.15 56.75 671.15 56.50L671.15 36.50ZM706.40 56.80Q706.60 57.05 707.60 57.05L707.60 58.00L698.45 58.00L698.45 57.05Q699.05 57.05 699.05 56.80Q699.05 56.70 698.85 56.40L694.10 49.85L691.40 53.00L691.40 56.50Q691.40 56.75 691.78 56.90Q692.15 57.05 692.50 57.05L692.50 58.00L683.95 58.00L683.95 57.05Q684.30 57.05 684.68 56.90Q685.05 56.75 685.05 56.50L685.05 22.00Q685.05 21.75 684.68 21.60Q684.30 21.45 683.95 21.45L683.95 20.50L692.50 20.50L692.50 21.45Q692.15 21.45 691.78 21.60Q691.40 21.75 691.40 22.00L691.40 44.10L698.00 36.50L698.10 36.30Q698.10 35.95 697.20 35.95L697.20 35.00L707.20 35.00L707.20 35.95L706.75 35.95Q706.10 35.95 705.90 36.15L697.85 45.50L706.40 56.80ZM716.15 30.80Q714.55 30.80 713.43 29.70Q712.30 28.60 712.30 26.95Q712.30 25.40 713.43 24.27Q714.55 23.15 716.15 23.15Q717.75 23.15 718.85 24.27Q719.95 25.40 719.95 26.95Q719.95 28.60 718.85 29.70Q717.75 30.80 716.15 30.80M712.90 36.50Q712.90 36.25 712.53 36.10Q712.15 35.95 711.80 35.95L711.80 35.00L720.40 35.00L720.40 35.95Q720.05 35.95 719.68 36.10Q719.30 36.25 719.30 36.50L719.30 56.50Q719.30 56.75 719.68 56.90Q720.05 57.05 720.40 57.05L720.40 58.00L711.80 58.00L711.80 57.05Q712.15 57.05 712.53 56.90Q712.90 56.75 712.90 56.50L712.90 36.50ZM723.65 60.95L742.15 17.75L748.25 17.75L729.75 60.95L723.65 60.95ZM768.05 58.55Q763.45 58.55 759.85 56.65Q756.25 54.75 754.25 51.12Q752.25 47.50 752.25 42.60L752.25 22.00Q752.25 21.75 751.83 21.60Q751.40 21.45 751.00 21.45L751.00 20.50L760.65 20.50L760.65 21.45Q760.25 21.45 759.83 21.60Q759.40 21.75 759.40 22.00L759.40 41.10Q759.40 46.50 761.58 49.40Q763.75 52.30 768.05 52.30Q772.75 52.30 774.33 49.30Q775.90 46.30 775.90 41.50L775.90 22.00Q775.90 21.75 775.48 21.60Q775.05 21.45 774.65 21.45L774.65 20.50L784.35 20.50L784.35 21.45Q783.95 21.45 783.53 21.60Q783.10 21.75 783.10 22.00L783.10 41.70Q783.10 49.65 779.48 54.10Q775.85 58.55 768.05 58.55ZM798.85 58.75Q796.30 58.75 793.93 57.70Q791.55 56.65 789.15 54.70Q789.05 54.60 788.90 54.60Q788.50 54.60 788.05 55.05L787.35 54.45L792.35 48.75L793.05 49.40Q792.85 49.65 792.73 50.00Q792.60 50.35 792.80 50.55Q794.45 52.05 795.88 52.77Q797.30 53.50 798.85 53.50Q802.70 53.50 802.70 50.95Q802.70 49.80 801.53 49.17Q800.35 48.55 797.60 47.80Q794.05 46.85 792.45 45.32Q790.85 43.80 790.85 41.15Q790.85 38.00 792.90 36.02Q794.95 34.05 798.50 34.05Q800.30 34.05 801.75 34.60Q803.20 35.15 805.25 36.55Q805.30 36.60 805.45 36.60Q805.70 36.60 805.95 36.45Q806.20 36.30 806.30 36.15L807.05 36.80L802.55 41.90L801.85 41.30Q802.05 41.10 802.13 40.77Q802.20 40.45 802.00 40.25Q801.10 39.55 800.28 39.20Q799.45 38.85 798.45 38.85Q797.40 38.85 796.80 39.25Q796.20 39.65 796.20 40.45Q796.20 41.10 796.55 41.50Q796.90 41.90 797.83 42.30Q798.75 42.70 800.65 43.30Q804.15 44.35 806.15 46.22Q808.15 48.10 808.15 50.85Q808.15 54.90 805.60 56.82Q803.05 58.75 798.85 58.75ZM823.35 33.95Q827.20 33.95 830.00 35.62Q832.80 37.30 834.25 40.15Q835.70 43.00 835.70 46.45Q835.70 47.50 835.55 48.55L817.25 48.55Q817.45 50.95 819.35 52.30Q821.25 53.65 823.90 53.65Q825.70 53.65 826.93 53.15Q828.15 52.65 829.10 51.65Q829.20 51.45 829.20 51.40Q829.20 51.20 829.05 50.97Q828.90 50.75 828.75 50.65L829.35 49.90L834.90 54.25L834.35 55.00Q833.60 54.55 833.30 54.90Q829.80 59.10 823.90 59.10Q820.10 59.10 817.20 57.42Q814.30 55.75 812.73 52.92Q811.15 50.10 811.15 46.65Q811.15 43.00 812.70 40.10Q814.25 37.20 817.03 35.57Q819.80 33.95 823.35 33.95M829.70 43.90Q829.50 41.85 827.63 40.42Q825.75 39.00 823.40 39.00Q821.05 39.00 819.35 40.42Q817.65 41.85 817.30 43.90L829.70 43.90ZM854.90 33.50L854.90 41.55L853.95 41.55Q853.95 41.20 853.80 40.75Q853.65 40.30 853.40 40.25L853.05 40.25Q851.50 40.25 849.93 41.12Q848.35 42.00 847.33 43.42Q846.30 44.85 846.30 46.45L846.30 56.50Q846.30 56.75 846.68 56.90Q847.05 57.05 847.40 57.05L847.40 58.00L839 58.00L839 57.05Q839.35 57.05 839.73 56.90Q840.10 56.75 840.10 56.50L840.10 36.50Q840.10 36.25 839.73 36.10Q839.35 35.95 839 35.95L839 35.00L846.30 35.00L846.30 37.15Q847.65 35.90 849.55 35.15Q851.45 34.40 853.35 34.40L853.40 34.40L853.45 34.40Q853.70 34.40 853.83 34.10Q853.95 33.80 853.95 33.50L854.90 33.50ZM863.45 42.30Q861.60 42.30 860.38 41.07Q859.15 39.85 859.15 38.00Q859.15 36.25 860.40 35.02Q861.65 33.80 863.45 33.80Q865.20 33.80 866.43 35.02Q867.65 36.25 867.65 38.00Q867.65 39.85 866.43 41.07Q865.20 42.30 863.45 42.30M863.45 58.55Q861.60 58.55 860.38 57.32Q859.15 56.10 859.15 54.25Q859.15 52.50 860.40 51.27Q861.65 50.05 863.45 50.05Q865.20 50.05 866.43 51.27Q867.65 52.50 867.65 54.25Q867.65 56.10 866.43 57.32Q865.20 58.55 863.45 58.55ZM892.20 58.50Q886.85 58.50 882.35 55.97Q877.85 53.45 875.25 48.97Q872.65 44.50 872.65 39.00Q872.65 33.20 875.25 28.75Q877.85 24.30 882.25 21.87Q886.65 19.45 891.90 19.45Q896.95 19.45 900.43 21.22Q903.90 23.00 907.00 26.20Q907.10 26.30 907.30 26.30Q907.60 26.30 908.35 25.85L908.95 26.60L902.05 32.05L901.45 31.30Q901.75 31.10 901.93 30.77Q902.10 30.45 901.90 30.30Q899.80 28.25 897.53 27.17Q895.25 26.10 892.00 26.10Q888.60 26.10 885.75 27.77Q882.90 29.45 881.25 32.40Q879.60 35.35 879.60 39.00Q879.60 42.50 881.35 45.37Q883.10 48.25 886.00 49.90Q888.90 51.55 892.20 51.55Q895.30 51.55 897.50 50.47Q899.70 49.40 901.65 47.25L901.75 47.05Q901.75 46.80 901.53 46.47Q901.30 46.15 901.05 46.00L901.70 45.30L909.15 51.55L908.55 52.30Q908.25 52.05 907.80 51.85Q907.35 51.65 907.20 51.85Q904.05 55.25 900.60 56.87Q897.15 58.50 892.20 58.50ZM926.30 34.40Q929.85 34.40 932.75 35.92Q935.65 37.45 937.33 40.20Q939.00 42.95 939.00 46.55Q939.00 50.20 937.35 52.92Q935.70 55.65 932.83 57.15Q929.95 58.65 926.30 58.65Q922.10 58.65 919.00 56.15L919.00 58.00L911.70 58.00L911.70 57.05Q912.05 57.05 912.43 56.90Q912.80 56.75 912.80 56.50L912.80 22.00Q912.80 21.75 912.43 21.60Q912.05 21.45 911.70 21.45L911.70 20.50L920.10 20.50L920.10 21.45Q919.75 21.45 919.38 21.60Q919.00 21.75 919.00 22.00L919.00 36.75Q922.00 34.40 926.30 34.40M925.90 53.35Q928.90 53.35 930.93 51.50Q932.95 49.65 932.95 46.55Q932.95 43.65 930.95 41.72Q928.95 39.80 925.90 39.80Q922.80 39.80 920.80 41.75Q918.80 43.70 918.80 46.70Q918.80 48.45 919.73 49.97Q920.65 51.50 922.30 52.42Q923.95 53.35 925.90 53.35ZM965.55 56.50Q965.55 56.75 965.93 56.90Q966.30 57.05 966.65 57.05L966.65 58.00L960.45 58.00L960.45 56.15Q957.80 58.45 954.30 58.45Q949.05 58.45 946.60 55.42Q944.15 52.40 944.15 47.85L944.15 36.50Q944.15 36.25 943.78 36.10Q943.40 35.95 943.05 35.95L943.05 35.00L951.55 35.00L951.55 35.95Q951.20 35.95 950.83 36.10Q950.45 36.25 950.45 36.50L950.45 47.45Q950.45 49.60 951.55 51.07Q952.65 52.55 954.95 52.55Q957.15 52.55 958.25 51.20Q959.35 49.85 959.35 47.75L959.35 36.50Q959.35 36.25 958.98 36.10Q958.60 35.95 958.25 35.95L958.25 35.00L966.65 35.00L966.65 35.95Q966.30 35.95 965.93 36.10Q965.55 36.25 965.55 36.50L965.55 56.50ZM986.65 33.50L986.65 41.55L985.70 41.55Q985.70 41.20 985.55 40.75Q985.40 40.30 985.15 40.25L984.80 40.25Q983.25 40.25 981.68 41.12Q980.10 42.00 979.08 43.42Q978.05 44.85 978.05 46.45L978.05 56.50Q978.05 56.75 978.43 56.90Q978.80 57.05 979.15 57.05L979.15 58.00L970.75 58.00L970.75 57.05Q971.10 57.05 971.48 56.90Q971.85 56.75 971.85 56.50L971.85 36.50Q971.85 36.25 971.48 36.10Q971.10 35.95 970.75 35.95L970.75 35.00L978.05 35.00L978.05 37.15Q979.40 35.90 981.30 35.15Q983.20 34.40 985.10 34.40L985.15 34.40L985.20 34.40Q985.45 34.40 985.58 34.10Q985.70 33.80 985.70 33.50L986.65 33.50ZM1014.50 56.50Q1014.50 56.75 1014.88 56.90Q1015.25 57.05 1015.65 57.05L1015.65 58.00L1006.85 58.00L1006.85 57.05Q1007.25 57.05 1007.63 56.90Q1008.00 56.75 1008.00 56.50L1008.00 46.10Q1008.00 43.55 1006.75 41.72Q1005.50 39.90 1003.00 39.90Q1000.45 39.90 998.88 41.60Q997.30 43.30 997.30 46.50L997.30 56.50Q997.30 56.75 997.68 56.90Q998.05 57.05 998.45 57.05L998.45 58.00L989.70 58.00L989.70 57.05Q990.10 57.05 990.48 56.90Q990.85 56.75 990.85 56.50L990.85 36.50Q990.85 36.25 990.48 36.10Q990.10 35.95 989.75 35.95L989.75 35.00L997.30 35.00L997.30 37.05Q998.60 35.85 1000.38 35.17Q1002.15 34.50 1004.00 34.50Q1007.20 34.50 1009.58 35.85Q1011.95 37.20 1013.23 39.47Q1014.50 41.75 1014.50 44.55L1014.50 56.50ZM1031.90 33.95Q1035.75 33.95 1038.55 35.62Q1041.35 37.30 1042.80 40.15Q1044.25 43.00 1044.25 46.45Q1044.25 47.50 1044.10 48.55L1025.80 48.55Q1026.00 50.95 1027.90 52.30Q1029.80 53.65 1032.45 53.65Q1034.25 53.65 1035.48 53.15Q1036.70 52.65 1037.65 51.65Q1037.75 51.45 1037.75 51.40Q1037.75 51.20 1037.60 50.97Q1037.45 50.75 1037.30 50.65L1037.90 49.90L1043.45 54.25L1042.90 55.00Q1042.15 54.55 1041.85 54.90Q1038.35 59.10 1032.45 59.10Q1028.65 59.10 1025.75 57.42Q1022.85 55.75 1021.28 52.92Q1019.70 50.10 1019.70 46.65Q1019.70 43.00 1021.25 40.10Q1022.80 37.20 1025.58 35.57Q1028.35 33.95 1031.90 33.95M1038.25 43.90Q1038.05 41.85 1036.18 40.42Q1034.30 39.00 1031.95 39.00Q1029.60 39.00 1027.90 40.42Q1026.20 41.85 1025.85 43.90L1038.25 43.90ZM1061.45 34.00L1061.45 41.60L1060.50 41.60Q1060.50 41.25 1060.35 40.92Q1060.20 40.60 1059.95 40.60L1056.70 40.60L1056.70 56.50Q1056.70 56.75 1057.05 56.90Q1057.40 57.05 1057.75 57.05L1057.75 58.00L1049.60 58.00L1049.60 57.05Q1049.95 57.05 1050.30 56.90Q1050.65 56.75 1050.65 56.50L1050.65 40.60L1048.25 40.60Q1048.00 40.60 1047.85 40.92Q1047.70 41.25 1047.70 41.60L1046.75 41.60L1046.75 34.00L1047.70 34.00Q1047.70 34.35 1047.85 34.67Q1048.00 35.00 1048.25 35.00L1050.65 35.00L1050.65 29.15Q1050.65 28.90 1050.30 28.75Q1049.95 28.60 1049.60 28.60L1049.60 27.65L1057.75 27.65L1057.75 28.60Q1057.40 28.60 1057.05 28.75Q1056.70 28.90 1056.70 29.15L1056.70 35.00L1059.95 35.00Q1060.20 35.00 1060.35 34.67Q1060.50 34.35 1060.50 34.00L1061.45 34.00ZM1078.15 34.00L1078.15 41.60L1077.20 41.60Q1077.20 41.25 1077.05 40.92Q1076.90 40.60 1076.65 40.60L1073.40 40.60L1073.40 56.50Q1073.40 56.75 1073.75 56.90Q1074.10 57.05 1074.45 57.05L1074.45 58.00L1066.30 58.00L1066.30 57.05Q1066.65 57.05 1067.00 56.90Q1067.35 56.75 1067.35 56.50L1067.35 40.60L1064.95 40.60Q1064.70 40.60 1064.55 40.92Q1064.40 41.25 1064.40 41.60L1063.45 41.60L1063.45 34.00L1064.40 34.00Q1064.40 34.35 1064.55 34.67Q1064.70 35.00 1064.95 35.00L1067.35 35.00L1067.35 29.15Q1067.35 28.90 1067.00 28.75Q1066.65 28.60 1066.30 28.60L1066.30 27.65L1074.45 27.65L1074.45 28.60Q1074.10 28.60 1073.75 28.75Q1073.40 28.90 1073.40 29.15L1073.40 35.00L1076.65 35.00Q1076.90 35.00 1077.05 34.67Q1077.20 34.35 1077.20 34.00L1078.15 34.00ZM1079.40 60.95L1097.90 17.75L1104.00 17.75L1085.50 60.95L1079.40 60.95ZM1143.50 52.00L1139.75 54.30Q1132.60 58.50 1124.55 58.50Q1119.25 58.50 1114.95 55.90Q1110.65 53.30 1108.20 48.80Q1105.75 44.30 1105.75 38.85Q1105.75 33.15 1108.45 28.72Q1111.15 24.30 1115.73 21.85Q1120.30 19.40 1125.75 19.40Q1129.70 19.40 1132.88 20.72Q1136.05 22.05 1139.15 24.45Q1139.20 24.50 1139.35 24.50Q1139.60 24.50 1139.98 24.27Q1140.35 24.05 1140.55 23.85L1141.20 24.55L1134.55 31.15L1133.85 30.50Q1134.15 30.20 1134.33 29.82Q1134.50 29.45 1134.30 29.25Q1130.25 25.70 1125.80 25.70Q1122.30 25.70 1119.30 27.30Q1116.30 28.90 1114.53 31.87Q1112.75 34.85 1112.75 38.85Q1112.75 42.50 1114.25 45.47Q1115.75 48.45 1118.45 50.20Q1121.15 51.95 1124.60 51.95Q1130.45 51.95 1134.80 49.20L1134.80 41.90L1125.75 41.90Q1125.50 41.90 1125.35 42.25Q1125.20 42.60 1125.20 42.95L1124.25 42.95L1124.25 34.95L1125.20 34.95Q1125.20 35.30 1125.35 35.65Q1125.50 36.00 1125.75 36.00L1142.35 36.00L1142.35 36.95Q1142.00 36.95 1141.63 37.10Q1141.25 37.25 1141.25 37.50L1141.25 51.40Q1141.25 51.65 1141.65 51.65Q1142.25 51.65 1143.00 51.20L1143.50 52.00ZM1172.35 19.45L1172.35 27.45L1171.40 27.45Q1171.40 27.10 1171.25 26.75Q1171.10 26.40 1170.85 26.40L1154.65 26.40L1154.65 35.25L1167.75 35.25Q1168.00 35.25 1168.15 34.90Q1168.30 34.55 1168.30 34.20L1169.25 34.20L1169.25 42.20L1168.30 42.20Q1168.30 41.85 1168.15 41.50Q1168.00 41.15 1167.75 41.15L1154.65 41.15L1154.65 56.50Q1154.65 56.75 1155.03 56.90Q1155.40 57.05 1155.80 57.05L1155.80 58.00L1147.00 58.00L1147.00 57.05Q1147.40 57.05 1147.78 56.90Q1148.15 56.75 1148.15 56.50L1148.15 22.00Q1148.15 21.75 1147.78 21.60Q1147.40 21.45 1147.05 21.45L1147.05 20.50L1170.85 20.50Q1171.10 20.50 1171.25 20.15Q1171.40 19.80 1171.40 19.45L1172.35 19.45ZM1189.95 20.50Q1195.55 20.50 1199.70 22.77Q1203.85 25.05 1206.13 29.35Q1208.40 33.65 1208.40 39.55Q1208.40 45.20 1205.98 49.37Q1203.55 53.55 1199.23 55.77Q1194.90 58.00 1189.35 58.00L1175.85 58.00L1175.85 57.05Q1176.20 57.05 1176.58 56.90Q1176.95 56.75 1176.95 56.50L1176.95 22.00Q1176.95 21.75 1176.58 21.60Q1176.20 21.45 1175.85 21.45L1175.85 20.50L1189.95 20.50M1188.40 52.10Q1192.75 52.10 1195.83 50.52Q1198.90 48.95 1200.48 46.10Q1202.05 43.25 1202.05 39.45Q1202.05 33.50 1198.85 29.95Q1195.65 26.40 1189.00 26.40L1183.50 26.40L1183.50 52.10L1188.40 52.10ZM1237.70 50.85L1237.70 59.05L1236.75 59.05Q1236.75 58.75 1236.60 58.37Q1236.45 58.00 1236.20 58.00L1212.45 58.00L1212.45 57.05Q1212.80 57.05 1213.18 56.90Q1213.55 56.75 1213.55 56.50L1213.55 22.00Q1213.55 21.75 1213.15 21.60Q1212.75 21.45 1212.40 21.45L1212.40 20.50L1221.40 20.50L1221.40 21.45Q1221.05 21.45 1220.65 21.60Q1220.25 21.75 1220.25 22.00L1220.25 51.90L1236.20 51.90Q1236.45 51.90 1236.60 51.52Q1236.75 51.15 1236.75 50.85L1237.70 50.85ZM1242.65 63.40L1242.65 60.00L1265.75 60.00L1265.75 63.40L1242.65 63.40ZM1285.30 43.70Q1285.55 43.70 1285.70 43.40Q1285.85 43.10 1285.85 42.80L1286.80 42.80L1286.80 49.65L1285.85 49.65Q1285.85 49.35 1285.70 49.05Q1285.55 48.75 1285.30 48.75L1272.20 48.75Q1271.95 48.75 1271.80 49.05Q1271.65 49.35 1271.65 49.65L1270.70 49.65L1270.70 42.80L1271.65 42.80Q1271.65 43.10 1271.80 43.40Q1271.95 43.70 1272.20 43.70L1285.30 43.70Z"/></g><g transform="translate(0, 386.4)"><path d="M4.35 30.80Q2.75 30.80 1.63 29.70Q0.50 28.60 0.50 26.95Q0.50 25.40 1.63 24.27Q2.75 23.15 4.35 23.15Q5.95 23.15 7.05 24.27Q8.15 25.40 8.15 26.95Q8.15 28.60 7.05 29.70Q5.95 30.80 4.35 30.80M1.10 36.50Q1.10 36.25 0.73 36.10Q0.35 35.95 0 35.95L0 35.00L8.60 35.00L8.60 35.95Q8.25 35.95 7.88 36.10Q7.50 36.25 7.50 36.50L7.50 56.50Q7.50 56.75 7.88 56.90Q8.25 57.05 8.60 57.05L8.60 58.00L0 58.00L0 57.05Q0.35 57.05 0.73 56.90Q1.10 56.75 1.10 56.50L1.10 36.50ZM51.05 56.50Q51.05 56.75 51.43 56.90Q51.80 57.05 52.20 57.05L52.20 58.00L43.40 58.00L43.40 57.05Q43.80 57.05 44.18 56.90Q44.55 56.75 44.55 56.50L44.55 46.10Q44.55 39.90 40.45 39.90Q38.45 39.90 37.35 41.55Q36.25 43.20 36.25 46.50L36.25 56.50Q36.25 56.75 36.63 56.90Q37 57.05 37.40 57.05L37.40 58.00L28.65 58.00L28.65 57.05Q29.05 57.05 29.43 56.90Q29.80 56.75 29.80 56.50L29.80 46.10Q29.80 43.35 28.95 41.62Q28.10 39.90 25.80 39.90Q24 39.90 22.93 41.22Q21.85 42.55 21.65 45.20L21.65 56.50Q21.65 56.75 22.05 56.90Q22.45 57.05 22.80 57.05L22.80 58.00L13.90 58.00L13.90 57.05Q14.25 57.05 14.65 56.90Q15.05 56.75 15.05 56.50L15.05 36.50Q15.05 36.25 14.68 36.10Q14.30 35.95 13.95 35.95L13.95 35.00L21.65 35.00L21.65 36.35Q23.65 34.50 26.75 34.50Q29.55 34.50 31.58 35.57Q33.60 36.65 34.75 38.55Q35.65 36.70 37.53 35.60Q39.40 34.50 41.75 34.50Q46.45 34.50 48.75 37.30Q51.05 40.10 51.05 44.55L51.05 56.50ZM83.85 35.95Q83.50 35.95 83.13 36.10Q82.75 36.25 82.75 36.50L82.75 56.50Q82.75 56.75 83.13 56.90Q83.50 57.05 83.85 57.05L83.85 58.00L76.45 58.00L76.45 55.25Q73.30 58.65 68.50 58.65Q64.85 58.65 62.08 57.17Q59.30 55.70 57.78 52.95Q56.25 50.20 56.25 46.55Q56.25 43.00 57.93 40.22Q59.60 37.45 62.40 35.92Q65.20 34.40 68.50 34.40Q73.30 34.40 76.45 38.10L76.45 35.00L83.85 35.00L83.85 35.95M69.25 53.35Q71.30 53.35 72.93 52.42Q74.55 51.50 75.45 49.97Q76.35 48.45 76.35 46.70Q76.35 43.70 74.38 41.75Q72.40 39.80 69.25 39.80Q66.20 39.80 64.23 41.70Q62.25 43.60 62.25 46.55Q62.25 49.65 64.28 51.50Q66.30 53.35 69.25 53.35ZM115.20 35.00L115.20 35.95Q114.85 35.95 114.48 36.10Q114.10 36.25 114.10 36.50L114.15 59.85Q114.15 66.10 110.55 69.52Q106.95 72.95 100.75 72.95Q98.20 72.95 95.35 71.52Q92.50 70.10 90.10 67.30Q90.05 67.15 89.80 67.15Q89.40 67.15 88.95 67.50L88.40 66.75L94.65 61.80L95.25 62.55Q95 62.75 94.78 63.10Q94.55 63.45 94.70 63.70Q95.95 65.45 97.40 66.30Q98.85 67.15 100.90 67.15Q104.15 67.15 106 65.57Q107.85 64.00 107.85 60.80L107.85 56.25Q104.70 58.70 100.60 58.70Q96.90 58.70 94.03 57.17Q91.15 55.65 89.53 52.87Q87.90 50.10 87.90 46.50Q87.90 42.90 89.60 40.17Q91.30 37.45 94.20 35.97Q97.10 34.50 100.60 34.50Q104.80 34.50 107.85 36.80L107.85 35.00L115.20 35.00M100.90 53.35Q104.30 53.35 106.15 51.52Q108 49.70 108 46.70Q108 43.70 106 41.75Q104 39.80 100.90 39.80Q97.90 39.80 95.93 41.70Q93.95 43.60 93.95 46.60Q93.95 49.70 95.95 51.52Q97.95 53.35 100.90 53.35ZM131.65 33.95Q135.50 33.95 138.30 35.62Q141.10 37.30 142.55 40.15Q144 43.00 144 46.45Q144 47.50 143.85 48.55L125.55 48.55Q125.75 50.95 127.65 52.30Q129.55 53.65 132.20 53.65Q134 53.65 135.22 53.15Q136.45 52.65 137.40 51.65Q137.50 51.45 137.50 51.40Q137.50 51.20 137.35 50.97Q137.20 50.75 137.05 50.65L137.65 49.90L143.20 54.25L142.65 55.00Q141.90 54.55 141.60 54.90Q138.10 59.10 132.20 59.10Q128.40 59.10 125.50 57.42Q122.60 55.75 121.03 52.92Q119.45 50.10 119.45 46.65Q119.45 43.00 121 40.10Q122.55 37.20 125.33 35.57Q128.10 33.95 131.65 33.95M138 43.90Q137.80 41.85 135.93 40.42Q134.05 39.00 131.70 39.00Q129.35 39.00 127.65 40.42Q125.95 41.85 125.60 43.90L138 43.90ZM157.50 58.75Q154.95 58.75 152.57 57.70Q150.20 56.65 147.80 54.70Q147.70 54.60 147.55 54.60Q147.15 54.60 146.70 55.05L146 54.45L151 48.75L151.70 49.40Q151.50 49.65 151.38 50.00Q151.25 50.35 151.45 50.55Q153.10 52.05 154.53 52.77Q155.95 53.50 157.50 53.50Q161.35 53.50 161.35 50.95Q161.35 49.80 160.18 49.17Q159 48.55 156.25 47.80Q152.70 46.85 151.10 45.32Q149.50 43.80 149.50 41.15Q149.50 38.00 151.55 36.02Q153.60 34.05 157.15 34.05Q158.95 34.05 160.40 34.60Q161.85 35.15 163.90 36.55Q163.95 36.60 164.10 36.60Q164.35 36.60 164.60 36.45Q164.85 36.30 164.95 36.15L165.70 36.80L161.20 41.90L160.50 41.30Q160.70 41.10 160.78 40.77Q160.85 40.45 160.65 40.25Q159.75 39.55 158.93 39.20Q158.10 38.85 157.10 38.85Q156.05 38.85 155.45 39.25Q154.85 39.65 154.85 40.45Q154.85 41.10 155.20 41.50Q155.55 41.90 156.47 42.30Q157.40 42.70 159.30 43.30Q162.80 44.35 164.80 46.22Q166.80 48.10 166.80 50.85Q166.80 54.90 164.25 56.82Q161.70 58.75 157.50 58.75ZM168.30 60.95L186.80 17.75L192.90 17.75L174.40 60.95L168.30 60.95ZM214.20 58.50Q208.85 58.50 204.35 55.97Q199.85 53.45 197.25 48.97Q194.65 44.50 194.65 39.00Q194.65 33.20 197.25 28.75Q199.85 24.30 204.25 21.87Q208.65 19.45 213.90 19.45Q218.95 19.45 222.43 21.22Q225.90 23.00 229 26.20Q229.10 26.30 229.30 26.30Q229.60 26.30 230.35 25.85L230.95 26.60L224.05 32.05L223.45 31.30Q223.75 31.10 223.93 30.77Q224.10 30.45 223.90 30.30Q221.80 28.25 219.53 27.17Q217.25 26.10 214 26.10Q210.60 26.10 207.75 27.77Q204.90 29.45 203.25 32.40Q201.60 35.35 201.60 39.00Q201.60 42.50 203.35 45.37Q205.10 48.25 208 49.90Q210.90 51.55 214.20 51.55Q217.30 51.55 219.50 50.47Q221.70 49.40 223.65 47.25L223.75 47.05Q223.75 46.80 223.53 46.47Q223.30 46.15 223.05 46.00L223.70 45.30L231.15 51.55L230.55 52.30Q230.25 52.05 229.80 51.85Q229.35 51.65 229.20 51.85Q226.05 55.25 222.60 56.87Q219.15 58.50 214.20 58.50ZM258.50 56.50Q258.50 56.75 258.88 56.90Q259.25 57.05 259.65 57.05L259.65 58.00L250.85 58.00L250.85 57.05Q251.25 57.05 251.63 56.90Q252 56.75 252 56.50L252 46.10Q252 43.55 250.75 41.72Q249.50 39.90 247 39.90Q244.45 39.90 242.75 41.60Q241.05 43.30 241.05 46.50L241.05 56.50Q241.05 56.75 241.43 56.90Q241.80 57.05 242.15 57.05L242.15 58.00L233.70 58.00L233.70 57.05Q234.05 57.05 234.43 56.90Q234.80 56.75 234.80 56.50L234.80 22.00Q234.80 21.75 234.43 21.60Q234.05 21.45 233.70 21.45L233.70 20.50L242.15 20.50L242.15 21.45Q241.80 21.45 241.43 21.60Q241.05 21.75 241.05 22.00L241.05 37.25Q242.35 36.00 244.22 35.25Q246.10 34.50 248 34.50Q251.25 34.50 253.63 35.85Q256 37.20 257.25 39.47Q258.50 41.75 258.50 44.55L258.50 56.50ZM275.90 33.95Q279.75 33.95 282.55 35.62Q285.35 37.30 286.80 40.15Q288.25 43.00 288.25 46.45Q288.25 47.50 288.10 48.55L269.80 48.55Q270 50.95 271.90 52.30Q273.80 53.65 276.45 53.65Q278.25 53.65 279.47 53.15Q280.70 52.65 281.65 51.65Q281.75 51.45 281.75 51.40Q281.75 51.20 281.60 50.97Q281.45 50.75 281.30 50.65L281.90 49.90L287.45 54.25L286.90 55.00Q286.15 54.55 285.85 54.90Q282.35 59.10 276.45 59.10Q272.65 59.10 269.75 57.42Q266.85 55.75 265.27 52.92Q263.70 50.10 263.70 46.65Q263.70 43.00 265.25 40.10Q266.80 37.20 269.57 35.57Q272.35 33.95 275.90 33.95M282.25 43.90Q282.05 41.85 280.18 40.42Q278.30 39.00 275.95 39.00Q273.60 39.00 271.90 40.42Q270.20 41.85 269.85 43.90L282.25 43.90ZM301.75 58.75Q299.20 58.75 296.82 57.70Q294.45 56.65 292.05 54.70Q291.95 54.60 291.80 54.60Q291.40 54.60 290.95 55.05L290.25 54.45L295.25 48.75L295.95 49.40Q295.75 49.65 295.63 50.00Q295.50 50.35 295.70 50.55Q297.35 52.05 298.77 52.77Q300.20 53.50 301.75 53.50Q305.60 53.50 305.60 50.95Q305.60 49.80 304.43 49.17Q303.25 48.55 300.50 47.80Q296.95 46.85 295.35 45.32Q293.75 43.80 293.75 41.15Q293.75 38.00 295.80 36.02Q297.85 34.05 301.40 34.05Q303.20 34.05 304.65 34.60Q306.10 35.15 308.15 36.55Q308.20 36.60 308.35 36.60Q308.60 36.60 308.85 36.45Q309.10 36.30 309.20 36.15L309.95 36.80L305.45 41.90L304.75 41.30Q304.95 41.10 305.02 40.77Q305.10 40.45 304.90 40.25Q304 39.55 303.18 39.20Q302.35 38.85 301.35 38.85Q300.30 38.85 299.70 39.25Q299.10 39.65 299.10 40.45Q299.10 41.10 299.45 41.50Q299.80 41.90 300.73 42.30Q301.65 42.70 303.55 43.30Q307.05 44.35 309.05 46.22Q311.05 48.10 311.05 50.85Q311.05 54.90 308.50 56.82Q305.95 58.75 301.75 58.75ZM324.30 58.75Q321.75 58.75 319.38 57.70Q317 56.65 314.60 54.70Q314.50 54.60 314.35 54.60Q313.95 54.60 313.50 55.05L312.80 54.45L317.80 48.75L318.50 49.40Q318.30 49.65 318.18 50.00Q318.05 50.35 318.25 50.55Q319.90 52.05 321.32 52.77Q322.75 53.50 324.30 53.50Q328.15 53.50 328.15 50.95Q328.15 49.80 326.98 49.17Q325.80 48.55 323.05 47.80Q319.50 46.85 317.90 45.32Q316.30 43.80 316.30 41.15Q316.30 38.00 318.35 36.02Q320.40 34.05 323.95 34.05Q325.75 34.05 327.20 34.60Q328.65 35.15 330.70 36.55Q330.75 36.60 330.90 36.60Q331.15 36.60 331.40 36.45Q331.65 36.30 331.75 36.15L332.50 36.80L328 41.90L327.30 41.30Q327.50 41.10 327.57 40.77Q327.65 40.45 327.45 40.25Q326.55 39.55 325.73 39.20Q324.90 38.85 323.90 38.85Q322.85 38.85 322.25 39.25Q321.65 39.65 321.65 40.45Q321.65 41.10 322 41.50Q322.35 41.90 323.28 42.30Q324.20 42.70 326.10 43.30Q329.60 44.35 331.60 46.22Q333.60 48.10 333.60 50.85Q333.60 54.90 331.05 56.82Q328.50 58.75 324.30 58.75ZM341.75 64.35L338.45 61.60L335.65 59.35L336.35 58.50Q336.95 59.05 337.85 59.05Q338.40 59.05 338.55 58.85Q340.80 55.70 342.28 51.37Q343.75 47.05 343.75 42.85Q343.75 38.60 342.20 34.17Q340.65 29.75 338.35 26.60Q338.20 26.45 337.85 26.45Q337.10 26.45 336.45 26.90L335.85 26.20L338 24.45L341.30 21.70L344.10 19.45L344.75 20.25Q344.35 20.55 344.15 21.00Q343.95 21.45 343.95 21.80Q343.95 22.10 344.10 22.25Q347.25 26.05 349.13 31.52Q351 37.00 351 42.85Q351 48.75 349.05 54.32Q347.10 59.90 343.90 63.65Q343.70 63.90 343.90 64.55Q344.10 65.20 344.45 65.55L343.85 66.20L341.75 64.35Z"/></g></g></svg>