<svg id="svg" version="1.1" xmlns="http://www.w3.org/2000/svg" width="450" height="450" viewBox="0 0 130 130">
    <g id="svgg" transform="scale(0.325)">
        <path id="path0"
              d="M150.625 12.753 C 144.609 15.275,128.732 21.885,115.342 27.442 C 86.800 39.287,90.226 37.152,91.449 42.328
                 C 94.840 56.680,95.921 61.371,99.397 76.796 L 103.253 93.904 98.658 98.548
                 C 95.343 101.899,93.714 103.122,92.813 102.939 C 92.125 102.800,80.172 100.073,66.250 96.879
                 C 52.328 93.685,40.216 90.947,39.335 90.795 C 37.960 90.557,37.594 90.858,36.762 92.915
                 C 36.229 94.234,31.642 105.297,26.568 117.500 C 12.144 152.196,8.125 162.014,8.125 162.556
                 C 8.125 162.960,26.021 174.283,53.096 191.007 L 56.504 193.113 56.564 199.986
                 L 56.625 206.858 32.375 221.921 C 19.037 230.205,8.125 237.228,8.125 237.526
                 C 8.125 237.825,10.892 244.761,14.275 252.941 C 32.279 296.478,37.765 309.375,38.281 309.375
                 C 38.594 309.375,50.711 306.670,65.207 303.363 C 79.702 300.056,92.125 297.229,92.813 297.079
                 C 93.725 296.881,95.308 298.066,98.672 301.466 L 103.282 306.125 99.413 323.219
                 C 95.337 341.224,93.897 347.460,91.747 356.414 C 91.023 359.425,90.578 362.036,90.757 362.215
                 C 92.596 364.055,163.743 392.581,163.757 391.484 C 163.760 391.184,170.332 380.391,178.360 367.500
                 L 192.958 344.063 200.073 343.916 L 207.188 343.769 222.097 367.822
                 C 230.298 381.051,237.352 391.875,237.774 391.875 C 238.452 391.875,253.765 385.594,296.552 367.765
                 C 303.422 364.903,309.138 362.274,309.255 361.924 C 309.470 361.278,305.597 343.659,299.947 319.578
                 L 296.841 306.344 301.607 301.578 L 306.373 296.812 311.468 298.046
                 C 331.024 302.780,362.049 309.438,362.442 308.984 C 362.703 308.684,366.881 298.875,371.727 287.188
                 C 376.573 275.500,383.222 259.484,386.501 251.597 C 389.781 243.709,392.402 237.209,392.326 237.152
                 C 392.250 237.094,385.016 232.598,376.250 227.161 C 367.484 221.723,356.656 214.991,352.188 212.201
                 L 344.063 207.128 344.063 200.019 L 344.063 192.910 367.500 178.317
                 C 380.391 170.291,391.289 163.508,391.718 163.244 C 392.303 162.884,391.739 160.964,389.474 155.600
                 C 387.810 151.661,381.159 135.641,374.693 120.000 C 368.227 104.359,362.732 91.329,362.481 91.043
                 C 362.230 90.758,350.670 93.113,336.793 96.277 C 322.916 99.441,310.377 102.297,308.928 102.623
                 L 306.293 103.217 301.552 98.567 L 296.811 93.918 298.052 88.678
                 C 304.747 60.410,309.640 38.182,309.255 37.796 C 309.063 37.605,300.785 34.080,290.860 29.963
                 C 280.934 25.846,269.859 21.232,266.250 19.709 C 252.144 13.759,238.223 8.125,237.625 8.125
                 C 237.280 8.125,230.290 18.955,222.092 32.191 L 207.188 56.257 200.047 56.097
                 L 192.907 55.938 178.142 32.190 C 170.020 19.129,162.968 8.381,162.469 8.305
                 C 161.971 8.229,156.641 10.230,150.625 12.753
                 M168.268 56.600 L 181.933 78.438 188.310 78.125
                 C 197.429 77.678,204.390 77.738,211.617 78.324 L 217.921 78.836 231.822 56.605
                 C 239.467 44.379,245.795 34.375,245.883 34.375 C 245.971 34.375,248.691 35.469,251.928 36.806
                 C 278.692 47.862,284.116 50.145,284.489 50.515 C 284.724 50.747,283.701 56.141,282.215 62.500
                 C 280.730 68.859,278.072 80.241,276.308 87.793 L 273.102 101.524 277.020 104.940
                 C 282.033 109.312,292.058 119.331,295.769 123.677 L 298.641 127.042 304.164 125.724
                 C 311.352 124.010,323.069 121.272,337.681 117.891 C 348.185 115.461,349.481 115.280,349.962 116.181
                 C 351.716 119.463,365.585 153.934,365.323 154.358 C 365.148 154.641,355.153 160.996,343.112 168.481
                 L 321.220 182.089 321.689 187.138 C 322.281 193.515,322.286 205.588,321.699 212.500
                 L 321.248 217.813 343.171 231.542 C 355.228 239.093,365.227 245.487,365.391 245.751
                 C 365.554 246.016,364.301 249.541,362.606 253.585 C 360.911 257.629,357.341 266.281,354.673 272.813
                 C 352.005 279.344,349.784 284.742,349.737 284.809 C 349.651 284.932,309.876 275.831,302.587 274.020
                 L 298.611 273.032 295.441 276.672 C 291.253 281.482,279.833 292.885,276.081 296.004
                 L 273.100 298.482 275.542 309.085 C 276.886 314.916,279.565 326.412,281.497 334.631
                 C 283.429 342.849,284.937 349.621,284.848 349.679 C 284.642 349.814,248.150 364.813,246.792 365.321
                 C 245.989 365.621,242.809 360.951,231.902 343.453 L 218.033 321.203 212.298 321.695
                 C 205.040 322.318,195.058 322.325,187.813 321.711 L 182.188 321.235 169.063 342.293
                 C 161.844 353.875,155.516 363.868,155.000 364.500 C 153.882 365.869,115.625 350.656,115.625 348.842
                 C 115.625 348.342,118.191 336.838,121.327 323.276 L 127.028 298.617 121.795 293.868
                 C 115.107 287.798,110.662 283.347,105.544 277.593 L 101.458 272.999 97.760 273.942
                 C 92.294 275.335,52.323 284.530,51.365 284.615 C 50.913 284.655,49.834 283.000,48.969 280.938
                 C 44.464 270.197,42.939 266.550,40.085 259.688 C 38.369 255.563,36.395 250.731,35.697 248.952
                 L 34.429 245.716 54.246 233.370 C 65.145 226.580,75.047 220.412,76.250 219.665 L 78.438 218.307 78.387 200.097
                 L 78.337 181.888 72.762 178.382 C 69.696 176.454,60.156 170.500,51.563 165.152
                 C 42.969 159.803,35.599 155.120,35.186 154.745 C 33.975 153.646,50.108 115.241,51.666 115.512
                 C 52.707 115.694,75.556 120.952,91.875 124.766 C 95.484 125.609,99.156 126.453,100.035 126.641
                 C 101.341 126.921,102.070 126.489,104.038 124.273 C 108.725 118.993,116.083 111.496,121.513 106.468
                 L 127.014 101.373 121.318 76.780 C 118.185 63.254,115.622 51.765,115.623 51.249
                 C 115.625 50.351,152.600 34.364,154.020 34.647 C 154.341 34.711,160.752 44.590,168.268 56.600
                 M193.750 129.150 C 192.891 129.276,190.083 129.690,187.511 130.071
                 C 160.179 134.115,135.578 158.367,130.315 186.457 C 119.818 242.471,176.330 288.048,228.072 265.298
                 C 278.438 243.154,286.361 176.123,242.520 143.067 C 229.197 133.022,208.196 127.029,193.750 129.150
                 M212.948 151.910 C 249.489 161.255,262.112 208.407,235.259 235.259
                 C 204.015 266.504,150.551 244.249,150.551 200.000 C 150.551 167.053,180.850 143.700,212.948 151.910"
              fill="#000000" fill-rule="evenodd" stroke="none"/>
    </g>
</svg>
